<?xml version="1.0" encoding="UTF-8" standalone="no"?>
<svg
   xmlns:osb="http://www.openswatchbook.org/uri/2009/osb"
   xmlns:dc="http://purl.org/dc/elements/1.1/"
   xmlns:cc="http://creativecommons.org/ns#"
   xmlns:rdf="http://www.w3.org/1999/02/22-rdf-syntax-ns#"
   xmlns:svg="http://www.w3.org/2000/svg"
   xmlns="http://www.w3.org/2000/svg"
   xmlns:sodipodi="http://sodipodi.sourceforge.net/DTD/sodipodi-0.dtd"
   xmlns:inkscape="http://www.inkscape.org/namespaces/inkscape"
   width="489.47913mm"
   height="185.20833mm"
   viewBox="0 0 489.47913 185.20833"
   version="1.1"
   id="svg8"
   sodipodi:docname="büyük-renkli.svg"
   inkscape:version="1.0.2 (e86c870879, 2021-01-15)">
  <sodipodi:namedview
     pagecolor="#ffffff"
     bordercolor="#666666"
     borderopacity="1"
     objecttolerance="10"
     gridtolerance="10"
     guidetolerance="10"
     inkscape:pageopacity="0"
     inkscape:pageshadow="2"
     inkscape:window-width="1920"
     inkscape:window-height="1012"
     id="namedview42"
     showgrid="false"
     inkscape:zoom="0.41214287"
     inkscape:cx="735.13896"
     inkscape:cy="486.80215"
     inkscape:window-x="0"
     inkscape:window-y="0"
     inkscape:window-maximized="1"
     inkscape:current-layer="svg8" />
  <defs
     id="defs2">
    <rect
       id="rect936"
       height="83.81572"
       width="145.1808"
       y="-74.835464"
       x="-1514.6698" />
    <rect
       id="rect930"
       height="157.15448"
       width="248.45375"
       y="151.16763"
       x="-1275.1963" />
    <rect
       id="rect924"
       height="215.52614"
       width="453.50293"
       y="154.16106"
       x="-1278.1898" />
    <rect
       x="-1179.407"
       y="172.12158"
       width="381.66089"
       height="193.07552"
       id="rect3513" />
    <linearGradient
       id="linearGradient3353"
       osb:paint="solid">
      <stop
         style="stop-color:#000000;stop-opacity:1;"
         offset="0"
         id="stop3351" />
    </linearGradient>
    <linearGradient
       id="linearGradient2947"
       osb:paint="solid">
      <stop
         style="stop-color:#000000;stop-opacity:1;"
         offset="0"
         id="stop2945" />
    </linearGradient>
    <linearGradient
       id="linearGradient2933"
       osb:paint="solid">
      <stop
         style="stop-color:#ff6600;stop-opacity:1;"
         offset="0"
         id="stop2931" />
    </linearGradient>
    <linearGradient
       id="linearGradient4984"
       osb:paint="solid">
      <stop
         style="stop-color:#000000;stop-opacity:1;"
         offset="0"
         id="stop4982" />
    </linearGradient>
    <rect
       x="-1514.6698"
       y="-74.835464"
       width="145.1808"
       height="83.81572"
       id="rect1101" />
    <rect
       x="-1514.6698"
       y="-74.835464"
       width="145.1808"
       height="83.81572"
       id="rect1140" />
    <rect
       x="-1514.6698"
       y="-74.835464"
       width="145.1808"
       height="83.81572"
       id="rect1214" />
  </defs>
  <metadata
     id="metadata5">
    <rdf:RDF>
      <cc:Work
         rdf:about="">
        <dc:format>image/svg+xml</dc:format>
        <dc:type
           rdf:resource="http://purl.org/dc/dcmitype/StillImage" />
        <dc:title />
      </cc:Work>
    </rdf:RDF>
  </metadata>
  <g
     id="g897">
    <g
       transform="translate(1084.9224,-375.66312)"
       id="g1256">
      <g
         id="g1243">
        <rect
           y="375.66312"
           x="-992.3183"
           height="185.20833"
           width="396.875"
           id="rect1190"
           style="fill:#ffb280;fill-opacity:1;stroke:none;stroke-width:5.06425;stroke-miterlimit:4;stroke-dasharray:none;stroke-dashoffset:0;stroke-opacity:1" />
        <g
           id="g1204"
           transform="translate(-843.89906,395.50683)">
          <circle
             r="85.480804"
             cy="72.760452"
             cx="-148.41922"
             id="circle1192"
             style="opacity:1;fill:#000000;fill-rule:evenodd;stroke:#ff6600;stroke-width:14.2467;stroke-miterlimit:4;stroke-dasharray:none;stroke-opacity:1" />
          <g
             id="g1202">
            <g
               id="g1196"
               transform="matrix(0.27634382,0,0,0.2973702,-195.14895,48.43422)"
               style="fill:#ff6600;fill-opacity:1;stroke-width:3.4884">
              <path
                 style="fill:#ff6600;fill-opacity:1;stroke:none;stroke-width:0.937138px;stroke-linecap:butt;stroke-linejoin:miter;stroke-opacity:1"
                 d="m 179.63687,87.916304 c 0,0 -4.18623,4.684546 -8.08965,13.483436 -2.8275,6.37362 -5.25904,14.8558 -5.06771,24.31504 -0.77409,-1.41342 -1.58127,-2.74477 -2.39735,-3.96909 -4.75069,-7.12725 -9.26961,-10.80205 -9.26961,-10.80205 0,0 3.02212,4.31922 5.33326,11.39637 2.34878,7.19246 3.5051,16.66324 -0.0486,26.21269 -2.28803,6.18211 -6.33574,11.98655 -11.93624,16.93641 -2.20486,1.97725 -4.75126,3.86426 -7.39213,5.80072 -2.64941,1.9427 -5.47911,3.99454 -8.19623,6.23689 -5.66339,4.51491 -10.49169,10.01387 -12.42619,16.65142 -1.79183,6.81281 0.0628,13.63539 3.42586,19.29285 4.93626,8.34468 12.77219,13.98627 18.47378,17.17102 5.80432,3.24213 9.66979,4.34271 9.66979,4.34271 0,0 -3.4367,-1.83562 -7.91012,-5.67907 -4.46007,-3.832 -9.74538,-9.73 -12.01292,-16.92077 -1.51383,-4.84612 -1.66377,-10.17081 0.62646,-14.65993 2.08817,-4.49714 6.70957,-8.23987 11.95307,-12.17837 2.638,-1.90787 5.47782,-3.824 8.26542,-5.88413 2.76875,-2.04617 5.54856,-4.27759 8.08217,-6.79993 5.31241,-5.35263 8.69158,-11.47536 10.29251,-17.79835 1.62279,3.12439 3.87266,6.05212 6.78624,8.58811 1.75703,1.51209 3.62686,2.81838 5.46977,4.00211 1.85546,1.19179 3.7259,2.28662 5.47724,3.38694 3.49705,2.28359 6.60879,4.47397 8.31965,7.31605 1.82829,2.82465 2.31926,6.34692 1.95977,9.636 -0.54587,4.88167 -2.99886,9.0928 -5.19301,11.88989 -2.20071,2.80546 -4.01303,4.22455 -4.01303,4.22455 0,0 2.14236,-0.95906 5.18739,-3.44776 2.99115,-2.44467 6.96547,-6.64055 8.94798,-12.44425 1.11521,-3.2425 1.52304,-6.94303 0.63954,-10.60046 5.03057,3.66162 9.37039,7.31653 11.83714,11.7613 3.09267,5.16838 3.74892,11.50257 2.8985,17.36391 -1.28421,8.6987 -5.93668,16.0747 -10.03819,20.94026 -4.11379,4.88013 -7.44636,7.3039 -7.44636,7.3039 0,0 3.89348,-1.58045 9.49776,-5.84069 5.50509,-4.18485 12.87837,-11.43859 16.79077,-21.69619 2.66968,-6.95552 3.57661,-15.1862 0.65263,-23.14898 -3.0471,-7.74459 -8.96192,-13.93274 -15.60331,-18.89316 -3.19799,-2.47038 -6.48589,-4.70837 -9.56695,-6.82774 -3.07113,-2.11256 -6.03522,-4.17195 -8.65438,-6.36376 -6.64178,-5.48133 -11.78118,-12.088 -15.13022,-19.26678 -5.19366,-11.08763 -5.42537,-22.41546 -4.05604,-31.12192 1.34738,-8.566862 3.86157,-13.909196 3.86157,-13.909196 z"
                 id="path1194" />
            </g>
            <path
               style="fill:none;stroke:#bbbbbb;stroke-width:5.0001;stroke-miterlimit:4;stroke-dasharray:none;stroke-opacity:1"
               d="M -166.07204,8.878069 V 54.91557 c -2.1957,25.56487 -19.4539,34.815668 -20.57135,51.95032 -1.16857,17.91845 20.04025,29.62517 37.99613,29.77544 17.95588,0.15027 38.97577,-11.18576 38.48964,-29.13569 -0.56229,-20.762092 -19.73584,-31.1596 -19.93109,-52.59007 V 8.878069 Z"
               id="path1198" />
            <path
               style="color:#000000;font-style:normal;font-variant:normal;font-weight:normal;font-stretch:normal;font-size:medium;line-height:normal;font-family:sans-serif;font-variant-ligatures:normal;font-variant-position:normal;font-variant-caps:normal;font-variant-numeric:normal;font-variant-alternates:normal;font-feature-settings:normal;text-indent:0;text-align:start;text-decoration:none;text-decoration-line:none;text-decoration-style:solid;text-decoration-color:#000000;letter-spacing:normal;word-spacing:normal;text-transform:none;writing-mode:lr-tb;direction:ltr;text-orientation:mixed;dominant-baseline:auto;baseline-shift:baseline;text-anchor:start;white-space:normal;shape-padding:0;clip-rule:nonzero;display:inline;overflow:visible;visibility:visible;opacity:0.5;isolation:auto;mix-blend-mode:normal;color-interpolation:sRGB;color-interpolation-filters:linearRGB;solid-color:#000000;solid-opacity:1;vector-effect:none;fill:#ffffff;fill-opacity:1;fill-rule:nonzero;stroke:none;stroke-width:0.264583px;stroke-linecap:butt;stroke-linejoin:miter;stroke-miterlimit:4;stroke-dasharray:none;stroke-dashoffset:0;stroke-opacity:1;color-rendering:auto;image-rendering:auto;shape-rendering:auto;text-rendering:auto;enable-background:accumulate"
               d="m -150.46627,109.0487 c -0.22682,0.41404 -0.42797,0.83662 -0.59686,1.26969 -0.034,0.0871 -0.0668,0.17506 -0.0982,0.26303 -0.58174,1.62682 -0.72338,3.3971 -0.20154,5.37331 0.64798,-0.6421 1.32746,-1.26803 2.01797,-1.88257 1.9262,-1.7144 3.92488,-3.34703 5.47873,-5.02346 z m 7.77265,0.0811 c -1.02397,0.92069 -2.10665,1.84263 -3.16932,2.78846 -0.31444,0.27987 -0.62696,0.56241 -0.93482,0.84698 -2.15501,1.99206 -4.09334,4.11276 -5.04465,6.55205 -0.034,0.0871 -0.0673,0.17506 -0.0987,0.26303 -0.58174,1.62682 -0.72338,3.3971 -0.20154,5.37332 0.64798,-0.6421 1.32797,-1.26801 2.01848,-1.88257 2.51998,-2.24286 5.16638,-4.34521 6.77478,-6.58978 1.58903,-2.21759 2.17347,-4.55668 0.65577,-7.35149 z m -0.33796,8.99945 c -1.02381,0.92053 -2.10683,1.84228 -3.16932,2.78794 -0.31445,0.27987 -0.62645,0.5624 -0.93431,0.84698 -2.15501,1.99205 -4.09386,4.11276 -5.04517,6.55205 -0.034,0.0871 -0.0668,0.17507 -0.0982,0.26304 -0.55355,1.548 -0.70716,3.22595 -0.2713,5.08754 h 0.36328 c 0.55897,-0.54224 1.13698,-1.07395 1.72445,-1.5968 2.51998,-2.24287 5.16638,-4.3452 6.77478,-6.58978 1.58896,-2.21748 2.17319,-4.55636 0.65577,-7.35097 z m -0.30489,8.71264 c -1.02396,0.9207 -2.10664,1.84263 -3.16932,2.78846 -0.31444,0.27988 -0.62698,0.56189 -0.93483,0.84646 -1.01194,0.93543 -1.9745,1.90017 -2.81119,2.91197 h 6.78511 c 1.17216,-1.98124 1.46574,-4.08759 0.13023,-6.54689 z"
               id="path1200" />
          </g>
        </g>
      </g>
      <g
         aria-label="Yağ
Kandili"
         transform="matrix(1.8003912,0,0,1.8003912,1848.621,532.21493)"
         id="text1210"
         style="font-size:35.2778px;line-height:1.25;font-family:'Special Elite';-inkscape-font-specification:'Special Elite';white-space:pre;shape-inside:url(#rect1214)">
        <path
           d="m -1505.7299,-68.049095 q -0.2067,0.05168 -0.3617,0.15503 -0.1551,0.08613 -0.3101,0.223931 -0.155,0.120578 -0.3445,0.292833 -0.1723,0.172255 -0.4306,0.396186 -0.052,0.34451 -0.052,0.68902 0,0.361735 0.086,0.585667 0.086,0.206706 0.1895,0.361735 0.1034,0.137804 0.1895,0.275608 0.086,0.120578 0.086,0.292833 0,0.378961 0.2067,0.792373 0.2239,0.413411 0.534,0.809598 0.3101,0.37896 0.6373,0.740696 0.3273,0.344509 0.5685,0.602892 h 0.052 q 0.155,0 0.3445,-0.137804 0.2067,-0.137804 0.3962,-0.327284 0.1894,-0.206706 0.31,-0.430638 0.1378,-0.223931 0.1378,-0.37896 0,-0.172255 0.1206,-0.310059 0.1206,-0.15503 0.2756,-0.292834 0.1723,-0.155029 0.3273,-0.275607 0.1722,-0.137804 0.2584,-0.292834 v -0.740696 q 0.1033,-0.103353 0.1895,-0.18948 0.1033,-0.08613 0.1722,-0.189481 0.069,-0.103352 0.1034,-0.241156 0.034,-0.137804 0.034,-0.361736 0,-0.137804 -0.017,-0.241156 0,-0.120579 0,-0.258383 0.1206,-0.18948 0.2411,-0.361735 0.1206,-0.18948 0.2584,-0.361735 0.1551,-0.361736 0,-0.516765 -0.1378,-0.155029 -0.4306,-0.206706 -0.2756,-0.05168 -0.6029,-0.05168 -0.3273,-0.01723 -0.534,-0.0689 l -0.2067,-0.03445 q -0.2067,-0.03445 -0.4651,-0.120579 -0.2584,-0.103353 -0.4479,-0.499539 -0.2067,-0.413412 -0.1378,-0.72347 0.086,-0.327285 0.3101,-0.551216 0.2239,-0.223931 0.534,-0.361735 0.3101,-0.137804 0.5684,-0.206706 0.4479,-0.137804 0.8785,-0.241157 0.4479,-0.103353 0.8958,-0.103353 0.5167,0 1.0163,0.103353 0.5167,0.08613 1.0335,0.08613 0.5512,0 1.0852,-0.103353 0.5512,-0.103352 1.1024,-0.103352 0.3618,0 0.6891,0.05168 0.3272,0.05168 0.5856,0.18948 0.2756,0.120579 0.4651,0.378961 0.1895,0.241157 0.2756,0.620118 0.086,0.396186 0.034,0.637343 -0.052,0.241157 0,0.378961 -0.2412,0.620117 -0.6546,0.895725 -0.3962,0.275608 -0.8613,0.396186 -0.4651,0.120579 -0.9474,0.206706 -0.4823,0.0689 -0.8613,0.292833 -0.3789,0.223932 -0.6373,0.706245 -0.2412,0.482314 -0.2412,1.395265 -0.2411,0.155029 -0.4995,0.430637 -0.2584,0.258383 -0.4995,0.568441 -0.224,0.310059 -0.4307,0.637344 -0.1895,0.310058 -0.2928,0.568441 0.1895,0.0689 0.2067,0.206706 -0.1378,0.241156 -0.2239,0.516764 -0.086,0.275608 -0.224,0.516765 -0.1033,0.18948 -0.2239,0.292833 -0.1033,0.08613 -0.2067,0.206706 -0.086,0.103353 -0.155,0.292833 -0.052,0.172255 -0.052,0.516765 0,0.155029 -0.034,0.310059 -0.034,0.137804 -0.1894,0.258382 -0.4307,0.34451 -0.7063,0.8785 -0.2584,0.516765 -0.4134,1.119657 -0.1378,0.585667 -0.1895,1.205784 -0.052,0.602892 -0.052,1.119657 0,0.465088 0.1378,0.912951 0.155,0.447863 0.155,0.912951 0,0.465088 -0.069,0.947402 -0.069,0.465088 -0.069,0.930176 0,0.241157 0.034,0.465088 0.034,0.206706 0.034,0.430638 0,0.241156 -0.017,0.396186 0,0.155029 0,0.275608 0,0.18948 0.086,0.327284 0.086,0.137804 0.3789,0.482314 0.069,0.08613 0.1895,0.275607 0.1378,0.189481 0.2412,0.189481 0.2928,0 0.5684,-0.0689 0.2929,-0.08613 0.5685,-0.172255 0.2928,-0.103353 0.5684,-0.172255 0.2928,-0.08613 0.6029,-0.08613 0.034,0 0.1895,0.03445 0.1722,0.03445 0.3617,0.08613 0.2067,0.05168 0.3962,0.103353 0.2067,0.03445 0.3273,0.05168 0.069,0.120579 0.1206,0.241157 0.069,0.103353 0.1205,0.241157 0.1551,0.0689 0.3446,0.15503 0.2067,0.0689 0.3789,0.18948 0.1723,0.103353 0.2928,0.258382 0.1206,0.15503 0.1206,0.361735 0,0.258383 -0.086,0.516765 -0.069,0.241157 -0.069,0.499539 0,0.223932 -0.3962,0.34451 -0.3962,0.120579 -0.9129,0.18948 -0.5168,0.05168 -0.9991,0.0689 -0.4823,0.01723 -0.6546,0.01723 -1.1713,0 -2.3254,-0.08613 -1.1369,-0.08613 -2.3082,-0.08613 -0.7407,0 -1.4642,0.137804 -0.7063,0.120578 -1.4297,0.120578 -0.3962,0 -0.7752,-0.103353 -0.3789,-0.103352 -0.7751,-0.103352 -0.4479,0 -0.8785,0.155029 -0.4134,0.137804 -0.8613,0.137804 -0.2584,0 -0.4651,-0.0689 0,-0.223931 -0.1033,-0.413412 -0.086,-0.18948 -0.2067,-0.361735 -0.1034,-0.189481 -0.2067,-0.378961 -0.086,-0.18948 -0.086,-0.413412 0,-0.413411 0.3618,-0.671794 0.3789,-0.275608 0.9474,-0.430637 0.5684,-0.172255 1.2574,-0.258382 0.7063,-0.08613 1.3781,-0.120579 0.6718,-0.05168 1.223,-0.0689 0.5512,-0.01722 0.844,-0.0689 0.1723,-0.327284 0.2756,-0.809598 0.1034,-0.482313 0.1551,-1.033529 0.069,-0.568441 0.086,-1.171333 0.017,-0.602892 0.017,-1.188559 0,-0.792372 0.017,-1.464166 0.017,-0.68902 -0.034,-1.309138 -0.034,-0.620117 -0.155,-1.188558 -0.1034,-0.585667 -0.3618,-1.171334 -0.2239,-0.499539 -0.6029,-0.8785 -0.3617,-0.37896 -0.6373,-0.844049 -0.2928,-0.499539 -0.4651,-1.050754 -0.1723,-0.568442 -0.4651,-1.085206 -0.6029,-1.085206 -1.1196,-2.187637 -0.4996,-1.119657 -0.8958,-2.308216 -0.2411,-0.03445 -0.3617,-0.120578 -0.1206,-0.08613 -0.2067,-0.189481 -0.069,-0.103353 -0.155,-0.206705 -0.086,-0.120579 -0.2584,-0.206706 -0.2067,-0.103353 -0.5857,-0.15503 -0.379,-0.0689 -0.8268,-0.120578 -0.4479,-0.0689 -0.913,-0.15503 -0.4478,-0.08613 -0.8268,-0.206705 -0.379,-0.137804 -0.6201,-0.34451 -0.2412,-0.223932 -0.2412,-0.551216 0,-0.361735 0.2412,-0.72347 0.2411,-0.361736 0.4823,-0.620118 0.2756,-0.292833 0.7235,-0.465088 0.4651,-0.172255 0.9646,-0.258383 0.5168,-0.103352 1.0335,-0.120578 0.534,-0.03445 0.9647,-0.03445 h 0.3617 l 1.1024,0.01723 q 0.4479,0 0.8441,0.08613 0.3962,0.0689 0.7751,0.172255 0.379,0.103353 0.7579,0.223931 0.3962,0.103353 0.8441,0.172255 0.3273,0.01723 0.534,0.327284 0.2067,0.292834 0.2756,0.671794 0.069,0.378961 0,0.740697 -0.052,0.361735 -0.2584,0.516764 z"
           style="font-size:35.2778px"
           id="path899" />
        <path
           d="m -1476.636,-48.635969 q 0,0.292834 -0.1034,0.551216 -0.1033,0.258382 -0.1895,0.53399 -0.069,0.241157 -0.1033,0.396186 -0.017,0.15503 -0.069,0.275608 -0.052,0.103353 -0.1723,0.206706 -0.1033,0.08613 -0.3445,0.206706 -0.5168,0.275608 -1.1024,0.568441 -0.5685,0.275608 -1.1541,0.275608 -0.4996,0 -0.9474,-0.223931 -0.4307,-0.241157 -0.8096,-0.516765 -0.3618,-0.292833 -0.6718,-0.53399 -0.2929,-0.241157 -0.4996,-0.241157 -0.2239,0 -0.3962,0.120578 -0.155,0.120579 -0.3272,0.258383 -0.1551,0.137804 -0.3618,0.258382 -0.1895,0.120578 -0.4823,0.120578 -0.2411,0 -0.4995,0.08613 -0.2584,0.08613 -0.5168,0.206706 -0.2584,0.103353 -0.534,0.223931 -0.2584,0.103353 -0.4823,0.172255 -0.7751,0.206706 -1.5675,0.241157 -0.7752,0.03445 -1.5675,0.03445 -0.2067,0 -0.6374,-0.01723 -0.4306,0 -0.8785,-0.08613 -0.4306,-0.0689 -0.7751,-0.241157 -0.3273,-0.172255 -0.3273,-0.482314 0,-0.0689 0.017,-0.120578 -0.1206,0.137804 -0.2756,0.223931 -0.155,0.08613 -0.3445,0.08613 -0.2756,0 -0.6718,-0.378961 -0.3962,-0.378961 -0.7579,-0.8785 -0.3618,-0.499539 -0.6201,-0.981853 -0.2584,-0.499539 -0.2584,-0.740696 0,-0.18948 0.1033,-0.34451 0.1206,-0.155029 0.1206,-0.34451 0,-0.241156 -0.069,-0.447862 -0.052,-0.223932 -0.052,-0.465088 0,-0.310059 0.1206,-0.654569 0.1206,-0.361735 0.2928,-0.706245 0.1723,-0.361735 0.3618,-0.68902 0.1895,-0.344509 0.3445,-0.637343 0.1722,-0.344509 0.4823,-0.551215 0.3101,-0.206706 0.6546,-0.361736 0.3445,-0.155029 0.689,-0.310058 0.3445,-0.15503 0.6029,-0.413412 0.2584,0.292833 0.6718,0.292833 0.4306,0 0.844,-0.120578 0.4134,-0.137804 0.8441,-0.137804 0.3445,0 0.6545,0.0689 0.3273,0.0689 0.6718,0.0689 0.379,0 0.5513,-0.08613 0.1894,-0.103353 0.465,-0.34451 0.2757,-0.241156 0.6891,-0.361735 0.4306,-0.137804 0.8785,-0.206706 0.4651,-0.08613 0.9129,-0.172255 0.4651,-0.08613 0.8268,-0.241156 0.3618,-0.172255 0.5857,-0.447863 0.2239,-0.292833 0.2239,-0.792373 0,-0.551215 -0.3272,-1.154107 -0.3101,-0.620118 -0.8096,-1.119657 -0.4996,-0.516765 -1.1025,-0.844049 -0.6029,-0.327284 -1.1541,-0.327284 -0.069,0 -0.1378,0.01723 -0.069,0.01723 -0.1206,0.01723 -0.4134,0.0689 -0.9301,0.103353 -0.5168,0.01722 -0.9647,0.155029 -0.4478,0.120578 -0.7579,0.430637 -0.31,0.292833 -0.31,0.8785 0,0.34451 0.052,0.68902 0.069,0.327284 0.069,0.671794 0,0.516764 -0.2584,0.861274 -0.2411,0.34451 -0.6373,0.551216 -0.379,0.206706 -0.844,0.292833 -0.4651,0.0689 -0.8958,0.0689 -0.5167,0 -0.8957,-0.137804 -0.379,-0.137804 -0.6201,-0.637343 -0.1895,-0.361735 -0.4134,-0.775147 -0.2067,-0.430637 -0.2067,-0.861274 0,-0.465089 0.155,-0.861275 0.1723,-0.413412 0.379,-0.792372 0.2067,-0.396187 0.3961,-0.775147 0.2068,-0.396187 0.2929,-0.844049 0.1206,-0.0689 0.3273,-0.137804 0.2239,-0.0689 0.4651,-0.137804 0.2583,-0.0689 0.4823,-0.120579 0.2411,-0.0689 0.3962,-0.120578 0.4134,-0.120578 0.7923,-0.275608 0.3962,-0.172255 0.7924,-0.310059 0.4134,-0.137803 0.8096,-0.241156 0.4134,-0.103353 0.844,-0.120579 l 0.534,-0.01723 q 0.7407,0 1.5159,0.137804 0.7751,0.120578 1.5158,0.396186 0.7407,0.275608 1.3953,0.689019 0.6718,0.396187 1.1885,0.947402 0.379,0.413412 0.6202,0.981853 0.2583,0.551216 0.3961,1.171333 0.1551,0.620118 0.2068,1.257461 0.069,0.620118 0.069,1.154108 0,0.72347 -0.052,1.429715 -0.034,0.68902 -0.034,1.412491 0,0.689019 0.069,1.378039 0.086,0.671794 0.1895,1.360813 0.1034,0.671794 0.1723,1.360814 0.086,0.671794 0.086,1.343588 0.034,0.413412 0.1033,0.516765 0.086,0.08613 0.1723,0.08613 0.379,0 0.6029,-0.223931 0.2411,-0.241157 0.4306,-0.516765 0.1895,-0.292833 0.4134,-0.53399 0.224,-0.241157 0.5685,-0.241157 0.155,0 0.31,0.01723 0.1723,0.01723 0.3101,0.08613 0.1378,0.05168 0.2239,0.172255 0.086,0.103353 0.086,0.292833 z m -5.6672,-4.289146 q 0,-0.103353 -0.017,-0.361736 0,-0.258382 -0.034,-0.516764 -0.034,-0.275608 -0.1206,-0.482314 -0.069,-0.206706 -0.2239,-0.206706 -0.034,0 -0.086,0.03445 -0.052,0.01723 -0.086,0.01723 -0.6545,0.361735 -1.1196,0.602892 -0.4651,0.223931 -0.9302,0.37896 -0.4479,0.137804 -0.9646,0.189481 -0.5168,0.05168 -1.2919,0.05168 -0.1034,0 -0.5685,0.08613 -0.4651,0.08613 -1.0163,0.206706 -0.5512,0.103352 -1.0335,0.223931 -0.4823,0.103353 -0.6029,0.137804 -0.2239,0.08613 -0.3273,0.172255 -0.086,0.08613 -0.1378,0.18948 -0.052,0.103353 -0.1033,0.223931 -0.052,0.103353 -0.1895,0.223932 -0.1723,0.137804 -0.379,0.223931 -0.1895,0.08613 -0.3617,0.258382 -0.2584,0.258383 -0.4823,0.68902 -0.224,0.413412 -0.224,0.792373 0,0.465088 0.2412,0.826823 0.2411,0.361735 0.6373,0.620118 0.3962,0.258382 0.8958,0.447862 0.4995,0.189481 0.999,0.292834 0.5168,0.103353 0.9819,0.155029 0.4823,0.05168 0.8268,0.05168 0.4134,0 0.9819,-0.05168 0.5684,-0.0689 1.1368,-0.18948 0.5685,-0.137804 1.068,-0.361736 0.4996,-0.223931 0.7924,-0.568441 0.1206,-0.137804 0.1723,-0.241157 0.052,-0.120578 0.1033,-0.223931 0.069,-0.120578 0.1378,-0.241157 0.086,-0.120578 0.2584,-0.258382 0.3962,-0.327284 0.6029,-0.723471 0.2239,-0.396186 0.3273,-0.826823 0.1033,-0.430637 0.1205,-0.895726 0.017,-0.465088 0.017,-0.947401 z"
           style="font-size:35.2778px"
           id="path901" />
        <path
           d="m -1459.3761,-43.278842 q 0,-0.499539 -0.2584,-0.775147 -0.2584,-0.275607 -0.6546,-0.430637 -0.3789,-0.155029 -0.8268,-0.241157 -0.4306,-0.0689 -0.7923,-0.172255 l -0.017,-0.01723 q -0.9474,-0.275608 -1.8948,-0.499539 -0.9474,-0.206706 -1.9292,-0.206706 -0.035,0 -0.1206,-0.01723 -0.086,-0.03445 -0.379,-0.223931 -0.1378,0 -0.2411,0.0689 -0.1034,0.0689 -0.2067,0.155029 -0.086,0.08613 -0.1895,0.15503 -0.1034,0.0689 -0.2239,0.0689 -0.1895,0 -0.3618,-0.08613 -0.1722,-0.0689 -0.3617,-0.0689 -0.379,0 -0.7407,0.103353 -0.3617,0.120579 -0.7235,0.241157 -0.3445,0.137804 -0.7062,0.241157 -0.3618,0.120578 -0.7407,0.120578 -0.224,0 -0.534,0.206706 -0.2928,0.206706 -0.5685,0.499539 -0.2756,0.292834 -0.465,0.602893 -0.1895,0.327284 -0.1895,0.551215 0,0.53399 0.1378,0.981853 0.155,0.447863 0.4478,0.775147 0.2929,0.327284 0.7063,0.516765 0.4306,0.18948 0.9991,0.18948 0.1894,0 0.3445,0.01723 0.1722,0.03445 0.3617,0.172255 0.6029,0.465088 1.3264,0.53399 0.7407,0.08613 1.4641,0.08613 0.4479,0 0.8441,-0.18948 0.4134,-0.189481 0.844,-0.292834 0.4307,-0.08613 0.8613,-0.08613 0.4479,0.01722 0.8613,-0.172255 0.2928,-0.137804 0.4651,-0.275608 0.1895,-0.120578 0.534,-0.120578 0.2928,0 0.5512,0.05168 0.2756,0.05168 0.5684,0.05168 0.2929,0 0.534,-0.137804 0.2584,-0.120579 0.4306,-0.34451 0.1723,-0.206706 0.2584,-0.482314 0.1034,-0.258382 0.1034,-0.53399 l -0.017,-0.172255 q 0.3272,0 0.4134,-0.292833 0.086,-0.292833 0.086,-0.551216 z m 2.7561,0.568442 q 0,0.551215 -0.379,1.154107 -0.3617,0.620118 -0.8785,1.136883 -0.4995,0.516764 -0.9991,0.844049 -0.4995,0.344509 -0.7579,0.344509 -0.4478,0 -0.8785,0.120579 -0.4134,0.137804 -0.8096,0.327284 -0.3789,0.18948 -1.1369,0.378961 -0.7407,0.18948 -1.5847,0.327284 -0.8441,0.155029 -1.6192,0.241157 -0.7752,0.103353 -1.2058,0.103353 -0.4995,0 -1.068,-0.03445 -0.5512,-0.03445 -1.1196,-0.120579 -0.5685,-0.0689 -1.1197,-0.206705 -0.534,-0.120579 -0.9991,-0.310059 -0.2411,-0.103353 -0.3961,-0.206706 -0.1379,-0.103353 -0.2757,-0.18948 -0.1378,-0.08613 -0.31,-0.137804 -0.1723,-0.05168 -0.4823,-0.05168 -0.3618,0 -0.5857,-0.137804 -0.2239,-0.120578 -0.379,-0.327284 -0.1378,-0.206706 -0.2756,-0.465088 -0.1205,-0.241157 -0.2928,-0.482314 -0.379,-0.499539 -0.5684,-0.964627 -0.1895,-0.447863 -0.1895,-1.085206 0,-0.8785 0.3617,-1.705324 0.3618,-0.809598 0.9474,-1.464166 0,-0.516765 -0.1378,-1.016304 -0.1206,-0.499539 -0.2756,-0.999078 -0.1378,-0.49954 -0.2756,-0.999079 -0.1206,-0.499539 -0.1206,-1.016304 0,-0.344509 0.086,-0.551215 0.1034,-0.223932 0.2068,-0.361735 0.1033,-0.15503 0.1894,-0.275608 0.1034,-0.137804 0.1034,-0.310059 0,-0.05168 0.2411,-0.292833 0.2584,-0.241157 0.5513,-0.551216 0.31,-0.310059 0.5512,-0.654569 0.2584,-0.344509 0.2584,-0.602892 0,-0.223931 -0.1895,-0.413411 -0.1723,-0.206706 -0.379,-0.396187 -0.2067,-0.206706 -0.3962,-0.413411 -0.1722,-0.223932 -0.1722,-0.482314 0,-0.378961 0.052,-0.757922 0.069,-0.396186 0.1378,-0.757921 0.086,-0.378961 0.1378,-0.757922 0.069,-0.37896 0.069,-0.775147 0,-0.08613 -0.034,-0.137804 -0.034,-0.0689 -0.034,-0.155029 0,-0.18948 0.086,-0.327284 0.1033,-0.15503 0.2239,-0.258383 0.1206,-0.120578 0.2067,-0.223931 0.1034,-0.103353 0.1034,-0.206706 0,-0.137804 -0.1034,-0.258382 -0.1033,-0.137804 -0.1033,-0.378961 v -0.0689 -0.08613 q 0.2756,-0.189481 0.4478,-0.447863 0.1895,-0.258382 0.4307,-0.465088 0.3445,-0.292834 0.8096,-0.568441 0.4823,-0.292834 0.8785,-0.49954 0.1378,0.01723 0.1894,0.137804 0.052,0.120579 0.1895,0.120579 0.1034,0 0.3273,-0.103353 0.2239,-0.120579 0.5168,-0.258383 0.31,-0.155029 0.6373,-0.258382 0.3445,-0.120578 0.6718,-0.120578 0.2756,0 0.5512,0.05168 0.2756,0.03445 0.5512,0.0689 0.5513,0.0689 0.9819,0.08613 0.4306,0.01722 0.7924,0.120578 0.3789,0.103353 0.689,0.361735 0.3273,0.258383 0.6718,0.792373 0.1722,-0.15503 0.3962,-0.275608 0.2239,-0.120579 0.4306,-0.241157 0.2067,-0.137804 0.379,-0.292833 0.1722,-0.172255 0.2584,-0.413412 0.1722,0.08613 0.3445,0.08613 0.1378,0 0.2928,-0.103352 0.155,-0.103353 0.3617,-0.206706 0.2067,-0.120579 0.4823,-0.223932 0.2757,-0.103353 0.6546,-0.103353 0.5857,0 1.1369,0.120579 0.5684,0.120578 1.1541,0.172255 0.034,0.396186 0.155,0.757921 0.1206,0.34451 0.2584,0.706245 0.1378,0.361736 0.2412,0.723471 0.1206,0.361735 0.1206,0.740696 0,0.258382 -0.2757,0.585666 -0.2583,0.327285 -0.6545,0.620118 -0.379,0.275608 -0.8268,0.465088 -0.4307,0.189481 -0.7752,0.189481 -0.052,0 -0.1206,-0.03445 -0.052,-0.03445 -0.052,-0.103353 0,-0.172255 0.1034,-0.292834 0.1206,-0.120578 0.1206,-0.292833 -0.224,-0.120578 -0.2756,-0.137804 -0.034,-0.01723 -0.052,-0.01723 -0.2928,0 -0.4651,0.155029 -0.1722,0.137804 -0.2584,0.396186 -0.086,0.241157 -0.1206,0.551216 -0.034,0.292833 -0.034,0.602892 0,0.34451 0.017,0.654569 0.017,0.292833 0.017,0.499539 0,0.430637 -0.052,0.775147 -0.052,0.327284 -0.379,0.637343 -0.31,0.292833 -0.4823,0.654569 -0.1723,0.344509 -0.3445,0.72347 -0.1723,0.378961 -0.3962,0.757922 -0.2067,0.37896 -0.6029,0.689019 -0.2067,0.206706 -0.3445,0.310059 -0.1206,0.103353 -0.1895,0.155029 -0.052,0.05168 -0.086,0.0689 -0.017,0 -0.034,0 -0.465,0 -0.8957,0.137804 -0.4306,0.120579 -0.8613,0.275608 -0.4306,0.137804 -0.8612,0.275608 -0.4307,0.120578 -0.8958,0.120578 -0.7062,0 -1.3952,-0.155029 -0.6718,-0.172255 -1.3953,-0.172255 -0.3445,0 -0.7751,0.137804 -0.4307,0.137804 -0.8096,0.396186 -0.3618,0.241157 -0.6202,0.585667 -0.2583,0.327284 -0.2583,0.72347 0,0.241157 0.1033,0.49954 0.1034,0.258382 0.2756,0.465088 0.1723,0.206706 0.3962,0.34451 0.2412,0.120578 0.4996,0.120578 0.2928,0 0.5339,-0.137804 0.2584,-0.137804 0.5513,-0.137804 0.2067,0 0.3272,0.120579 0.1378,0.103352 0.2929,0.120578 0,-0.103353 0.069,-0.18948 0.086,-0.08613 0.2067,-0.08613 0.1033,0 0.2067,0.120579 0.1033,0.120578 0.2411,0.155029 0.086,-0.137804 0.2412,-0.18948 0.155,-0.0689 0.3101,-0.0689 0.2067,0 0.3789,0.0689 0.1895,0.0689 0.3618,0.172254 0.1722,0.08613 0.3272,0.15503 0.1551,0.0689 0.3101,0.0689 0.1378,0 0.2412,-0.0689 0.1033,-0.08613 0.2239,-0.189481 0.1206,-0.103352 0.2756,-0.172254 0.155,-0.08613 0.3962,-0.08613 0.1895,0 0.3445,0.03445 0.1722,0.01723 0.3617,0.01723 0.2584,0 0.4823,-0.120579 0.2412,-0.137804 0.4996,-0.137804 0.1378,0 0.2584,0.0689 0.1378,0.0689 0.3272,0.15503 0.1895,0.08613 0.4479,0.155029 0.2756,0.0689 0.6718,0.0689 0.2756,0 0.5512,0.08613 0.2756,0.08613 0.534,0.206706 0.2584,0.120579 0.5168,0.241157 0.2756,0.120579 0.534,0.189481 0.31,0.08613 0.4651,0.172254 0.155,0.08613 0.2411,0.189481 0.1034,0.103353 0.2067,0.241157 0.1034,0.137804 0.3273,0.310058 0.2412,0.206706 0.4823,0.310059 0.2412,0.120579 0.4479,0.241157 0.2067,0.120579 0.3445,0.310059 0.155,0.18948 0.2411,0.568441 0.086,0.396186 0.1895,0.792373 0.1034,0.396186 0.1034,0.809598 z m -4.4614,-17.277166 q 0,-0.275608 -0.2929,-0.447863 -0.2928,-0.172255 -0.5339,-0.172255 -0.1379,0 -0.2584,0.0689 -0.1206,0.05168 -0.1551,0.189481 0.1378,0.03445 0.2412,0.120578 0.1033,0.08613 0.1895,0.189481 0.1033,0.08613 0.2067,0.155029 0.1206,0.0689 0.2756,0.0689 0.155,0 0.31,-0.05168 z m -1.7226,3.617353 q 0,-0.378961 -0.1378,-0.861275 -0.1206,-0.482313 -0.3617,-0.912951 -0.2412,-0.447862 -0.5685,-0.792372 -0.3272,-0.34451 -0.7062,-0.465088 l -1.9982,-0.706245 q -0.155,0 -0.2411,0.03445 -0.086,0.03445 -0.1723,0.08613 -0.086,0.03445 -0.1722,0.0689 -0.086,0.03445 -0.2412,0.03445 -0.2239,0 -0.4134,-0.08613 -0.1895,-0.08613 -0.3962,-0.08613 -0.1895,0 -0.31,0.120579 -0.1206,0.120578 -0.2412,0.241156 -0.1206,0.120579 -0.2239,0.172255 -0.086,0.05168 -0.1895,0.08613 -0.086,0.03445 -0.1895,0.08613 -0.086,0.03445 -0.1895,0.103353 -0.1378,0.08613 -0.3273,0.499539 -0.1894,0.413412 -0.3617,0.895726 -0.1722,0.482313 -0.2928,0.930176 -0.1206,0.447863 -0.1206,0.602892 0,0.0689 0.1034,0.310059 0.1033,0.223931 0.2583,0.551216 0.1723,0.327284 0.3618,0.689019 0.2067,0.361735 0.3789,0.68902 0.1895,0.327284 0.3273,0.585666 0.155,0.241157 0.2239,0.310059 0.224,0.292834 0.4824,0.396186 0.2756,0.08613 0.5684,0.08613 0.2412,0 0.4995,-0.03445 0.2757,-0.03445 0.534,-0.03445 0.2067,0 0.3962,0.05168 0.1895,0.03445 0.3962,0.03445 0.5684,0 1.1541,-0.37896 0.5857,-0.378961 1.068,-0.930177 0.4823,-0.551215 0.7924,-1.188559 0.31,-0.654568 0.31,-1.188558 z m 1.1369,-11.489401 q 0,0.18948 -0.2067,0.516764 -0.1895,0.327285 -0.4995,0.723471 -0.3101,0.378961 -0.6891,0.792372 -0.3789,0.413412 -0.7579,0.792373 -0.3617,0.361735 -0.6718,0.654568 -0.31,0.292834 -0.4823,0.430638 -0.034,0.03445 -0.3617,0.120578 -0.3101,0.0689 -0.7063,0.137804 -0.3789,0.0689 -0.7234,0.120578 -0.3445,0.05168 -0.4307,0.05168 -0.3789,0 -0.6029,-0.01723 -0.2239,-0.03445 -0.3962,-0.103353 -0.1722,-0.0689 -0.3617,-0.18948 -0.1722,-0.120578 -0.4823,-0.327284 -0.2584,-0.361736 -0.7062,-0.826824 -0.4307,-0.482313 -0.8441,-0.999078 -0.4134,-0.53399 -0.7235,-1.06798 -0.2928,-0.551216 -0.2928,-1.050755 0,-0.223932 0.1034,-0.413412 0.1033,-0.18948 0.2756,-0.327284 0.1722,-0.137804 0.3789,-0.206706 0.224,-0.08613 0.4307,-0.08613 0.2239,0 0.31,0.103353 0.1034,0.08613 0.155,0.258383 0.086,0.206706 0.1206,0.447862 0.052,0.223932 0.1551,0.430638 0.1033,0.137803 0.2067,0.241156 0.1033,0.08613 0.1894,0.172255 0.1034,0.08613 0.1551,0.206706 0.069,0.120579 0.086,0.327284 0.2928,0.482314 0.4823,0.68902 0.1895,0.206706 0.3962,0.310059 0.2067,0.103353 0.4651,0.18948 0.2756,0.08613 0.7062,0.327285 0.6891,-0.01723 1.1541,-0.258383 0.4651,-0.258382 0.7924,-0.602892 0.3445,-0.361735 0.5857,-0.775147 0.2584,-0.430637 0.5167,-0.775147 0.2584,-0.361735 0.5685,-0.585667 0.31,-0.241156 0.7579,-0.241156 0.3445,0 0.6373,0.206705 0.3101,0.206706 0.3101,0.602893 z"
           style="font-size:35.2778px"
           id="path903" />
        <path
           d="m -1494.0682,-2.2994032 q 0,0.1722549 -0.3962,0.2756078 -0.379,0.1033529 -0.9474,0.1550294 -0.5512,0.051676 -1.1886,0.068902 -0.6373,0.017225 -1.1196,0.017225 h -0.8096 q -0.4996,0 -0.9819,0.034451 -0.4651,0.034451 -0.9646,0.034451 -0.155,0 -0.4307,0 -0.2583,-0.017225 -0.5167,-0.086127 -0.2412,-0.068902 -0.4307,-0.1894803 -0.1722,-0.1205785 -0.1722,-0.3617353 0,-0.034451 0.086,-0.3445098 0.1034,-0.3100588 0.2756,-0.6545686 0.1895,-0.3617352 0.4479,-0.6373431 0.2584,-0.2928333 0.5857,-0.2928333 0.1894,0 0.3445,0.051677 0.052,-0.2239314 0.052,-0.4823137 0,-0.4995392 -0.2067,-0.9129509 -0.1894,-0.4134118 -0.4478,-0.809598 -0.2412,-0.3961862 -0.4823,-0.7923725 -0.2412,-0.4134117 -0.3273,-0.8957254 -0.052,-0.2756078 -0.1895,-0.4650882 -0.1206,-0.2067059 -0.2756,-0.3961863 -0.1378,-0.1894804 -0.2756,-0.3961862 -0.1206,-0.2067059 -0.1723,-0.4995392 -0.034,-0.2239316 -0.086,-0.3272846 -0.034,-0.120578 -0.1034,-0.18948 -0.069,-0.0689 -0.1894,-0.120578 -0.1034,-0.05168 -0.2756,-0.172255 -0.1723,-0.103353 -0.2412,-0.241157 -0.052,-0.137804 -0.086,-0.275608 -0.017,-0.155029 -0.034,-0.310059 -0.017,-0.172255 -0.086,-0.327284 -0.1378,-0.0689 -0.2584,-0.120579 -0.1033,-0.05168 -0.2412,-0.120578 -0.1033,-0.241157 -0.1894,-0.53399 -0.086,-0.310059 -0.224,-0.585667 -0.1205,-0.275608 -0.3272,-0.447862 -0.1895,-0.189481 -0.534,-0.189481 -0.224,0 -0.4651,0.206706 -0.224,0.18948 -0.4823,0.465088 -0.2412,0.275608 -0.4824,0.585667 -0.2411,0.292833 -0.4823,0.499539 -0.017,0.0689 -0.017,0.137804 0,0.0689 0,0.137804 0,0.206706 0.017,0.430637 0.017,0.206706 0.017,0.413412 0,0.292833 -0.086,0.499539 -0.069,0.206706 -0.1722,0.413412 -0.1034,0.1894801 -0.1895,0.396186 -0.069,0.1894803 -0.069,0.4478627 0,0.5512156 0.1206,1.1024313 0.1378,0.5512156 0.1378,1.1024313 0,0.2928333 -0.034,0.5856666 -0.017,0.2928333 -0.017,0.5856666 0,0.6201176 0.2239,0.9646274 0.224,0.3272843 0.5512,0.5167647 0.3273,0.1894804 0.7235,0.2756078 0.3962,0.068902 0.7235,0.1550294 0.3273,0.068902 0.5512,0.2067059 0.2239,0.1205784 0.2239,0.4134117 0,0.2239314 -0.1205,0.4823137 -0.1034,0.2583823 -0.2929,0.4823137 -0.1895,0.2239313 -0.4306,0.3961862 -0.2239,0.1550294 -0.4479,0.1722549 -0.1033,0.017225 -0.2067,0.017225 -0.1033,0 -0.2067,0 -0.2584,0 -0.5168,-0.051676 -0.2583,-0.068902 -0.5339,-0.068902 -0.224,0 -0.4479,0.068902 -0.2067,0.068902 -0.4306,0.1205785 -0.5513,0.1205784 -1.1197,0.2067058 -0.5684,0.103353 -1.1197,0.103353 -0.2239,0 -0.5339,-0.1378039 -0.3101,-0.137804 -0.6029,-0.3617353 -0.2756,-0.2239314 -0.4824,-0.5167647 -0.1894,-0.2928333 -0.1894,-0.6028921 0,-0.4650882 0.3273,-0.775147 0.3272,-0.3272843 0.7234,-0.4650882 0.1551,-0.2756078 0.3618,-0.3272843 0.2239,-0.051677 0.4134,-0.068902 0.2067,-0.034451 0.3617,-0.1378039 0.155,-0.1205784 0.1895,-0.5339901 0.034,-0.3445098 0.1895,-0.6201176 0.1722,-0.2756079 0.1722,-0.6028921 l -0.017,-0.086127 q -0.1206,-1.2057842 -0.2584,-2.394343 -0.1206,-1.1885585 -0.1206,-2.4115685 0,-1.136882 0.034,-2.273764 0.052,-1.154108 0.1722,-2.290991 0.034,-0.241156 0.069,-0.482313 0.052,-0.258383 0.052,-0.516765 0,-0.275608 -0.1378,-0.499539 -0.1378,-0.241157 -0.1378,-0.53399 0,-0.34451 0.034,-0.654569 0.052,-0.327284 0.052,-0.671794 0,-0.241157 -0.052,-0.465088 -0.034,-0.223931 -0.034,-0.447863 0,-0.327284 0.017,-0.637343 0.017,-0.327284 0.017,-0.637343 0,-0.671794 -0.086,-1.06798 -0.069,-0.396187 -0.31,-0.585667 -0.224,-0.206706 -0.6374,-0.258382 -0.3962,-0.0689 -1.0679,-0.0689 -0.2757,0 -0.5685,-0.01723 -0.2756,-0.01722 -0.5168,-0.120578 -0.2239,-0.103353 -0.3789,-0.292833 -0.155,-0.206706 -0.155,-0.568442 0,-0.361735 0.155,-0.72347 0.1722,-0.378961 0.4651,-0.602892 0.2239,-0.172255 0.689,-0.292834 0.4823,-0.137803 1.0852,-0.223931 0.6201,-0.08613 1.2919,-0.120578 0.689,-0.05168 1.3264,-0.0689 0.6545,-0.03445 1.1885,-0.03445 0.534,-0.01723 0.8613,-0.01723 0.5684,0 0.9302,0.0689 0.3789,0.0689 0.6029,0.275608 0.2411,0.206706 0.3273,0.568441 0.1033,0.361735 0.1033,0.947402 0,0.602892 -0.2756,1.016304 -0.2756,0.413412 -0.9646,0.413412 -0.1895,0 -0.379,-0.01723 -0.1895,-0.03445 -0.3789,-0.03445 -0.2584,0 -0.5168,0.206706 -0.2584,0.18948 -0.4651,0.447863 -0.1895,0.258382 -0.3101,0.499539 -0.1205,0.241157 -0.1205,0.34451 0,0.292833 0.1033,0.585666 0.1206,0.275608 0.1206,0.568441 0,0.34451 -0.1034,0.654569 -0.1033,0.310059 -0.1033,0.654569 0,0.137804 0.017,0.258382 0.017,0.103353 0.052,0.223931 0.017,0.137804 0.034,0.447863 0.017,0.310059 0.034,0.706245 0.017,0.378961 0.052,0.792373 0.034,0.396186 0.1033,0.740696 0.069,0.327284 0.1723,0.551215 0.1206,0.206706 0.31,0.206706 0.2756,0 0.6374,-0.447863 0.3789,-0.447862 0.7235,-1.033529 0.3617,-0.602892 0.6201,-1.171333 0.2756,-0.585667 0.3273,-0.844049 0.3445,-0.15503 0.6201,-0.378961 0.2928,-0.241157 0.534,-0.499539 0.1722,-0.172255 0.5167,-0.568441 0.3618,-0.396186 0.7235,-0.844049 0.3617,-0.447863 0.6201,-0.861275 0.2756,-0.413411 0.2756,-0.637343 0,-0.258382 -0.1378,-0.551215 -0.1378,-0.292834 -0.2928,-0.620118 -0.155,-0.327284 -0.2928,-0.654569 -0.1379,-0.344509 -0.1379,-0.706245 0,-0.310058 0.379,-0.499539 0.379,-0.18948 0.8957,-0.292833 0.5168,-0.120579 1.0336,-0.155029 0.534,-0.05168 0.8268,-0.05168 1.2919,0 2.5494,0.327284 1.2746,0.310059 2.446,0.861275 -0.1895,0.551215 -0.4651,0.809598 -0.2584,0.258382 -0.5685,0.378961 -0.31,0.120578 -0.6717,0.155029 -0.3618,0.01722 -0.7407,0.08613 -0.379,0.05168 -0.7752,0.206706 -0.3789,0.15503 -0.7407,0.53399 -0.2756,0.292834 -0.5167,0.602893 -0.2412,0.310058 -0.4996,0.602892 -0.2411,0.292833 -0.5168,0.568441 -0.2756,0.258382 -0.6373,0.465088 v 0.08613 q 0,0.620118 -0.3273,1.102432 -0.3273,0.482313 -0.7235,0.981853 -0.3789,0.499539 -0.7062,1.085205 -0.3273,0.585667 -0.3273,1.412491 0,0.413411 0.086,0.91295 0.086,0.482314 0.2757,0.947402 0.1894,0.447863 0.4823,0.809598 0.31,0.361736 0.7407,0.516765 0,0.08613 0.034,0.396186 0.034,0.292834 0.086,0.654569 0.069,0.34451 0.1551,0.689019 0.1033,0.327285 0.2239,0.482314 0.1034,0.120578 0.1206,0.206706 0.034,0.08613 0.034,0.172255 0.017,0.0689 0.017,0.155029 0.017,0.068902 0.069,0.1894806 0.1205,0.086127 0.2411,0.1378039 0.1206,0.051677 0.2584,0.1205784 v 0.7234706 q 0.052,0.1550294 0.1378,0.1894803 0.086,0.034451 0.2239,0.034451 0.1034,0 0.1551,0.2239314 0.069,0.2239313 0.1205,0.5512156 0.069,0.3100588 0.1378,0.6545686 0.069,0.3445098 0.2068,0.5684412 0.1722,0.2928333 0.2928,0.6201176 0.1378,0.3272842 0.2584,0.6545685 0.1378,0.3100588 0.2928,0.6201176 0.155,0.3100588 0.379,0.5512157 0.3272,0.3617353 0.8096,0.5856666 0.4995,0.2067059 0.9474,0.2928333 0.1205,0.034451 0.4134,0.1550294 0.2928,0.103353 0.5856,0.2583824 0.3101,0.1550294 0.534,0.3272843 0.224,0.1722549 0.224,0.3100588 z"
           style="font-size:35.2778px"
           id="path905" />
        <path
           d="m -1474.3623,-4.5387168 q 0,0.2928333 -0.1033,0.5512156 -0.1034,0.2583824 -0.1895,0.5339902 -0.069,0.2411568 -0.1034,0.3961862 -0.017,0.1550294 -0.069,0.2756079 -0.052,0.1033529 -0.1722,0.2067058 -0.1034,0.086128 -0.3445,0.2067059 -0.5168,0.2756078 -1.1025,0.5684411 -0.5684,0.2756079 -1.1541,0.2756079 -0.4995,0 -0.9474,-0.2239314 -0.4306,-0.2411568 -0.8096,-0.5167647 -0.3617,-0.2928333 -0.6718,-0.5339901 -0.2928,-0.2411569 -0.4995,-0.2411569 -0.2239,0 -0.3962,0.1205785 -0.155,0.1205784 -0.3273,0.2583823 -0.155,0.1378039 -0.3617,0.2583823 -0.1895,0.1205785 -0.4823,0.1205785 -0.2412,0 -0.4996,0.086127 -0.2583,0.086127 -0.5167,0.2067059 -0.2584,0.1033529 -0.534,0.2239313 -0.2584,0.103353 -0.4823,0.1722549 -0.7752,0.2067059 -1.5675,0.2411569 -0.7752,0.034451 -1.5676,0.034451 -0.2067,0 -0.6373,-0.017225 -0.4306,0 -0.8785,-0.086127 -0.4306,-0.068902 -0.7752,-0.2411568 -0.3272,-0.1722549 -0.3272,-0.4823137 0,-0.068902 0.017,-0.1205785 -0.1206,0.137804 -0.2756,0.2239314 -0.1551,0.086127 -0.3445,0.086127 -0.2756,0 -0.6718,-0.3789607 -0.3962,-0.3789608 -0.758,-0.8785 -0.3617,-0.4995391 -0.6201,-0.9818528 -0.2584,-0.4995392 -0.2584,-0.7406961 0,-0.1894803 0.1034,-0.3445097 0.1206,-0.1550294 0.1206,-0.3445098 0,-0.2411569 -0.069,-0.4478627 -0.052,-0.2239314 -0.052,-0.4650882 0,-0.3100588 0.1206,-0.6545686 0.1206,-0.3617353 0.2928,-0.7062451 0.1723,-0.3617352 0.3617,-0.6890195 0.1895,-0.3445098 0.3446,-0.6373431 0.1722,-0.3445098 0.4823,-0.5512157 0.31,-0.2067058 0.6545,-0.3617355 0.3446,-0.155029 0.6891,-0.310059 0.3445,-0.155029 0.6029,-0.413411 0.2583,0.292833 0.6717,0.292833 0.4307,0 0.8441,-0.120578 0.4134,-0.137804 0.844,-0.137804 0.3446,0 0.6546,0.0689 0.3273,0.0689 0.6718,0.0689 0.379,0 0.5512,-0.08613 0.1895,-0.103353 0.4651,-0.34451 0.2756,-0.241156 0.689,-0.361735 0.4307,-0.137804 0.8785,-0.206706 0.4651,-0.08613 0.913,-0.172255 0.4651,-0.08613 0.8268,-0.241156 0.3617,-0.172255 0.5857,-0.447863 0.2239,-0.292834 0.2239,-0.792373 0,-0.551215 -0.3273,-1.154107 -0.31,-0.620118 -0.8096,-1.119657 -0.4995,-0.516765 -1.1024,-0.844049 -0.6029,-0.327285 -1.1541,-0.327285 -0.069,0 -0.1378,0.01723 -0.069,0.01722 -0.1206,0.01722 -0.4134,0.0689 -0.9302,0.103353 -0.5167,0.01723 -0.9646,0.15503 -0.4479,0.120578 -0.7579,0.430637 -0.3101,0.292833 -0.3101,0.8785 0,0.34451 0.052,0.68902 0.069,0.327284 0.069,0.671794 0,0.516764 -0.2584,0.861274 -0.2411,0.34451 -0.6373,0.551216 -0.379,0.206706 -0.8441,0.292833 -0.4651,0.0689 -0.8957,0.0689 -0.5168,0 -0.8957,-0.137804 -0.379,-0.137804 -0.6201,-0.637343 -0.1895,-0.361735 -0.4135,-0.775147 -0.2067,-0.430637 -0.2067,-0.861274 0,-0.465089 0.1551,-0.861275 0.1722,-0.413412 0.3789,-0.792372 0.2067,-0.396187 0.3962,-0.775147 0.2067,-0.396187 0.2928,-0.844049 0.1206,-0.0689 0.3273,-0.137804 0.224,-0.0689 0.4651,-0.137804 0.2584,-0.0689 0.4823,-0.120579 0.2412,-0.0689 0.3962,-0.120578 0.4134,-0.120578 0.7924,-0.275608 0.3962,-0.172255 0.7924,-0.310059 0.4134,-0.137804 0.8096,-0.241157 0.4134,-0.103352 0.844,-0.120578 l 0.534,-0.01722 q 0.7407,0 1.5158,0.137803 0.7752,0.120579 1.5159,0.396187 0.7407,0.275608 1.3952,0.689019 0.6718,0.396187 1.1886,0.947402 0.379,0.413412 0.6201,0.981853 0.2584,0.551216 0.3962,1.171333 0.155,0.620118 0.2067,1.257461 0.069,0.620118 0.069,1.154108 0,0.72347 -0.052,1.429715 -0.034,0.68902 -0.034,1.4124904 0,0.6890196 0.069,1.3780392 0.086,0.671794 0.1895,1.3608136 0.1033,0.6717941 0.1722,1.3608136 0.086,0.6717941 0.086,1.3435882 0.034,0.4134117 0.1033,0.5167646 0.086,0.086127 0.1723,0.086127 0.3789,0 0.6029,-0.2239314 0.2411,-0.2411568 0.4306,-0.5167646 0.1895,-0.2928334 0.4134,-0.5339902 0.2239,-0.2411568 0.5684,-0.2411568 0.1551,0 0.3101,0.017225 0.1723,0.017225 0.3101,0.086127 0.1378,0.051677 0.2239,0.1722549 0.086,0.1033529 0.086,0.2928333 z m -5.6672,-4.2891468 q 0,-0.1033529 -0.017,-0.3617352 0,-0.2583824 -0.034,-0.5167647 -0.034,-0.2756078 -0.1206,-0.4823135 -0.069,-0.206706 -0.2239,-0.206706 -0.034,0 -0.086,0.03445 -0.052,0.01722 -0.086,0.01722 -0.6546,0.3617357 -1.1197,0.6028925 -0.465,0.2239314 -0.9301,0.3789608 -0.4479,0.1378039 -0.9647,0.1894803 -0.5167,0.051676 -1.2919,0.051676 -0.1033,0 -0.5684,0.086127 -0.4651,0.086127 -1.0163,0.2067058 -0.5512,0.103353 -1.0336,0.2239314 -0.4823,0.1033529 -0.6028,0.1378039 -0.224,0.086127 -0.3273,0.1722549 -0.086,0.086127 -0.1378,0.1894804 -0.052,0.1033529 -0.1034,0.2239313 -0.052,0.103353 -0.1895,0.2239314 -0.1722,0.1378039 -0.3789,0.2239313 -0.1895,0.086127 -0.3618,0.2583824 -0.2583,0.2583823 -0.4823,0.6890195 -0.2239,0.4134118 -0.2239,0.7923725 0,0.4650882 0.2412,0.8268235 0.2411,0.3617353 0.6373,0.6201176 0.3962,0.2583823 0.8957,0.4478627 0.4996,0.1894804 0.9991,0.2928333 0.5168,0.103353 0.9819,0.1550294 0.4823,0.051676 0.8268,0.051676 0.4134,0 0.9818,-0.051676 0.5685,-0.068902 1.1369,-0.1894803 0.5685,-0.137804 1.068,-0.3617353 0.4995,-0.2239314 0.7924,-0.5684412 0.1205,-0.1378039 0.1722,-0.2411568 0.052,-0.1205784 0.1034,-0.2239314 0.069,-0.1205784 0.1378,-0.2411568 0.086,-0.1205784 0.2584,-0.2583823 0.3961,-0.3272843 0.6028,-0.7234706 0.224,-0.3961862 0.3273,-0.8268234 0.1034,-0.4306373 0.1206,-0.8957255 0.017,-0.4650882 0.017,-0.9474019 z"
           style="font-size:35.2778px"
           id="path907" />
        <path
           d="m -1452.5893,-1.9721189 q 0,0.2411568 -0.1205,0.3961862 -0.1206,0.1550294 -0.3101,0.2411568 -0.1723,0.086127 -0.3962,0.103353 -0.2067,0.034451 -0.3962,0.034451 -0.2584,0 -0.5167,-0.034451 -0.2584,-0.034451 -0.5168,-0.068902 -0.3445,0.1205785 -0.8268,0.2411569 -0.4651,0.13780389 -0.8441,0.13780389 -0.1033,0 -0.2067,-0.034451 -0.086,-0.034451 -0.1722,-0.034451 -0.2929,0 -0.6029,0.10335293 -0.2929,0.12057843 -0.5857,0.12057843 -0.4995,0 -0.9646,-0.13780391 -0.4479,-0.12057838 -0.9474,-0.15502938 -0.8096,-0.068902 -1.2575,-0.6201176 -0.4306,-0.5684412 -0.4651,-1.3435882 0.534,-0.3272843 1.1197,-0.4478627 0.6029,-0.1205784 1.2058,-0.1205784 0.3445,0 0.6718,0.017225 0.3445,0.017225 0.689,0.051676 -0.052,-1.2919116 -0.2239,-2.5838233 -0.1723,-1.2919117 -0.1723,-2.6010489 0,-0.4478627 0.017,-0.8957254 0.034,-0.4478624 0.1206,-0.8957254 0.086,-0.447863 0.2239,-0.8785 0.1378,-0.447863 0.1378,-0.895725 0,-0.292834 -0.086,-0.533991 -0.086,-0.258382 -0.2239,-0.516764 -0.1206,-0.206706 -0.155,-0.465088 -0.034,-0.258383 -0.086,-0.516765 -0.052,-0.275608 -0.155,-0.53399 -0.1034,-0.258383 -0.3445,-0.465088 -0.2239,-0.206706 -0.6374,-0.327285 -0.4134,-0.120578 -1.0852,-0.120578 -0.2067,0 -0.6201,0.0689 -0.3962,0.05168 -0.8268,0.155029 -0.4134,0.08613 -0.7924,0.223932 -0.3617,0.120578 -0.4995,0.258382 -0.086,0.08613 -0.2239,0.241157 -0.1206,0.155029 -0.2757,0.327284 -0.1378,0.155029 -0.2756,0.292833 -0.1378,0.120579 -0.2411,0.137804 -0.2584,0.05168 -0.3962,0.08613 -0.1206,0.03445 -0.2067,0.103353 -0.069,0.0689 -0.1206,0.206706 -0.052,0.120578 -0.1722,0.361735 -0.034,0.0689 -0.1379,0.275608 -0.1033,0.18948 -0.2067,0.18948 -0.086,0 -0.1205,-0.0689 -0.034,-0.0689 -0.1206,-0.0689 -0.034,0 -0.1034,0.05168 -0.052,0.03445 -0.086,0.0689 v 0.482314 q -0.1206,0.137804 -0.2239,0.15503 -0.086,0 -0.1551,0.01723 -0.052,0.01723 -0.086,0.08613 -0.017,0.0689 -0.017,0.327284 0,0.18948 -0.086,0.34451 -0.086,0.155029 -0.1895,0.310058 -0.086,0.15503 -0.1723,0.327285 -0.086,0.155029 -0.086,0.361735 0,0.34451 0.086,0.671794 0.1034,0.3100588 0.1034,0.6545686 0,0.2239314 -0.069,0.3789608 -0.069,0.1550294 -0.1723,0.2928333 -0.086,0.1205784 -0.155,0.2411568 -0.069,0.1205784 -0.069,0.2928333 0,0.2411569 0.086,0.4478627 0.1034,0.1894804 0.2067,0.3961863 0.1034,0.2067059 0.1895,0.4306372 0.1034,0.2239314 0.1034,0.4823137 0,0.2928333 -0.069,0.6028921 -0.069,0.2928333 -0.069,0.6028921 0,0.3617353 0.1033,0.5684412 0.1206,0.1894804 0.2928,0.2928333 0.1895,0.1033529 0.4307,0.1550294 0.2411,0.051677 0.4823,0.1550294 0.2584,0.086127 0.5168,0.2583823 0.2583,0.1550294 0.4823,0.4823137 l 0.1033,-0.017225 q 0.2929,0 0.4307,0.2411569 0.1378,0.2411568 0.1378,0.4995392 0,0.2411568 -0.1034,0.4306372 -0.1033,0.1722549 -0.1033,0.4650882 0,0.2067059 -0.4479,0.3445098 -0.4479,0.13780389 -1.0163,0.20670584 -0.5684,0.0861275 -1.1024,0.10335294 -0.5168,0.034451 -0.6891,0.034451 -0.2067,0 -0.6373,-0.0172255 -0.4134,0 -0.9474,-0.034451 -0.5168,-0.0172255 -1.0852,-0.068902 -0.5684,-0.0516765 -1.0508,-0.1550294 -0.4823,-0.0861274 -0.8268,-0.24115683 -0.3273,-0.1378039 -0.4134,-0.3445098 -0.086,-0.2067059 -0.1723,-0.4478627 -0.086,-0.2583823 -0.086,-0.4995392 0,-0.2583823 0.1206,-0.4650882 0.1378,-0.2067059 0.3273,-0.3789608 0.2584,-0.2411568 0.5684,-0.2756078 0.3101,-0.051676 0.6029,-0.051676 0.3101,-0.017225 0.5857,-0.051677 0.2928,-0.051677 0.4995,-0.2756078 0.224,-0.2239314 0.3445,-0.7062451 0.1378,-0.4823137 0.1378,-1.3608136 0,-0.2239314 -0.034,-0.4478627 -0.034,-0.2411569 -0.086,-0.4478627 -0.052,-0.2239314 -0.086,-0.3961863 -0.034,-0.1722549 -0.034,-0.2583823 0,-0.103353 0.052,-0.2239314 0.069,-0.1205784 0.1378,-0.2411568 0.086,-0.1378039 0.1378,-0.2928333 0.069,-0.1550294 0.069,-0.3445098 0,-0.2928333 -0.1206,-0.5684412 -0.1034,-0.2756078 -0.1034,-0.5684411 0,-0.2411566 0.086,-0.4650886 0.086,-0.223931 0.086,-0.465088 0,-0.18948 -0.1034,-0.361735 -0.1033,-0.172255 -0.1033,-0.378961 0,-0.18948 0.069,-0.378961 0.069,-0.206705 0.069,-0.413411 0,-0.447863 -0.1034,-0.912951 -0.1033,-0.482314 -0.1894,-0.930177 -0.1034,-0.53399 -0.3962,-0.792372 -0.2756,-0.275608 -0.6374,-0.413412 -0.3617,-0.137804 -0.7579,-0.223931 -0.3962,-0.08613 -0.7235,-0.258383 -0.3273,-0.18948 -0.5512,-0.516764 -0.2067,-0.34451 -0.2067,-0.999079 0,-0.447862 0.2584,-0.689019 0.2756,-0.241157 0.6546,-0.34451 0.3789,-0.120578 0.7923,-0.137804 0.4307,-0.01722 0.7407,-0.01722 0.4996,0 0.9819,0.155029 0.4995,0.137804 0.9991,0.172255 0.2239,0.01722 0.4306,0.155029 0.2067,0.120579 0.379,0.310059 0.1722,0.172255 0.2756,0.396186 0.1033,0.223932 0.1205,0.447863 0,0.103353 0.069,0.378961 0.069,0.258382 0.1551,0.53399 0.1033,0.275608 0.2067,0.499539 0.1206,0.206706 0.2411,0.206706 0.1034,-0.08613 0.1378,-0.18948 0.052,-0.120579 0.086,-0.223932 0.017,-0.103353 0.2239,-0.275607 0.2239,-0.172255 0.4823,-0.361736 0.2756,-0.18948 0.5168,-0.361735 0.2584,-0.172255 0.3617,-0.275608 0.1034,-0.120578 0.155,-0.241157 0.069,-0.137804 0.1206,-0.241157 0.069,-0.120578 0.1551,-0.18948 0.1033,-0.0689 0.31,-0.0689 h 0.086 q 0.1895,0 0.3618,-0.155029 0.1722,-0.172255 0.4478,-0.378961 0.2756,-0.206706 0.7235,-0.361735 0.4479,-0.172255 1.1886,-0.172255 0.6373,0 1.2747,0.03445 0.6373,0.01722 1.2057,0.172255 0.5857,0.155029 1.0852,0.482313 0.5168,0.327285 0.8958,0.912951 0.2928,0.465088 0.4823,0.68902 0.1895,0.223931 0.31,0.430637 0.1206,0.206706 0.1551,0.499539 0.052,0.292834 0.052,0.8785 0,0.241157 0.086,0.447863 0.086,0.206706 0.1895,0.430637 0.1205,0.206706 0.2067,0.447863 0.086,0.241157 0.086,0.551215 0,0.602893 -0.069,1.205785 -0.069,0.585666 -0.069,1.188558 0,0.430638 -0.1723,0.8440494 -0.155,0.4134118 -0.155,0.844049 0,0.2067059 0.1034,0.3961862 0.1033,0.1894804 0.1033,0.4306373 0,0.2928333 -0.069,0.6028921 -0.069,0.2928333 -0.069,0.5856666 0,0.2756078 0.1206,0.4823137 0.1378,0.2067059 0.1378,0.4650882 0,0.1378039 -0.069,0.2239314 -0.052,0.086127 -0.1378,0.1722548 -0.069,0.086127 -0.1378,0.1894804 -0.052,0.086127 -0.052,0.2239314 0,0.2583823 0.1206,0.5339901 0.1378,0.2583824 0.3445,0.4823137 0.2067,0.2067059 0.4651,0.3445098 0.2584,0.1205784 0.5167,0.1205784 0.224,0 0.379,-0.086127 0.1723,-0.1033529 0.3617,-0.1033529 0.2412,0 0.4307,0.2067058 0.2067,0.1894804 0.3445,0.4650882 0.155,0.2756079 0.2239,0.5684412 0.086,0.2928333 0.086,0.4823137 z m -3.7207,-6.4940094 q 0,-0.1722549 -0.1205,-0.3272843 -0.1034,-0.1722549 -0.2929,-0.1722549 -0.1895,0 -0.2584,0.1894804 -0.069,0.1722549 -0.069,0.3272843 0,0.1894804 0.069,0.3617353 0.069,0.1722548 0.2756,0.1722548 0.1723,0 0.2584,-0.1033529 0.1034,-0.1205784 0.1378,-0.4134117 z m 0.2929,3.3072939 q 0,-0.1205784 -0.1034,-0.1894804 -0.086,-0.086127 -0.1895,-0.1378039 -0.034,0.1033529 -0.1205,0.2067059 -0.086,0.1033529 -0.1723,0.2239313 -0.086,0.1205784 -0.1723,0.2411569 -0.069,0.1205784 -0.069,0.2411568 0,0.1378039 0.086,0.2067059 0.086,0.068902 0.2067,0.1205784 0.017,-0.1033529 0.1033,-0.2067059 0.1034,-0.1033529 0.1895,-0.2239313 0.086,-0.1205784 0.155,-0.2239314 0.086,-0.1205784 0.086,-0.2583823 z m -11.455,-3.7034802 q 0,-0.1205784 -0.052,-0.2928333 -0.034,-0.1722549 -0.1205,-0.3272843 -0.069,-0.1722548 -0.1895,-0.2756078 -0.1034,-0.1205784 -0.2584,-0.1205784 -0.1895,0 -0.3273,0.1205784 -0.1378,0.103353 -0.3445,0.103353 h -0.069 q -0.052,0.1894803 -0.052,0.3617352 l 0.017,0.103353 0.017,-0.051676 q 0.052,0.1894804 0.2067,0.2928333 0.155,0.1033529 0.3273,0.1894804 0.1895,0.068902 0.3789,0.1378039 0.1895,0.068902 0.3273,0.1894804 0.1378,-0.1550294 0.1378,-0.4306373 z"
           style="font-size:35.2778px"
           id="path909" />
        <path
           d="m -1430.7818,-2.2649523 q 0,0.2239314 -0.1206,0.4478628 -0.1033,0.2239313 -0.3617,0.2239313 -0.1895,0 -0.3445,-0.034451 -0.155,-0.051676 -0.3445,-0.051676 -0.2756,0 -0.2929,0.1033529 0,0.1033529 -0.034,0.2239314 -0.034,0.1378039 -0.2584,0.2411568 -0.2067,0.1033529 -0.8957,0.1033529 -0.3962,0 -0.7924,-0.068902 -0.3789,-0.068902 -0.7751,-0.068902 -0.2929,0 -0.6374,0.086127 -0.1378,-0.1722549 -0.31,-0.2583824 -0.1551,-0.086127 -0.3101,-0.1894803 -0.1378,-0.086127 -0.2412,-0.2239314 -0.1033,-0.1378039 -0.1033,-0.4134117 0,-0.1894804 -0.2412,-0.1894804 -0.086,0 -0.1722,0.017226 -0.069,0.017225 -0.155,0.017225 -0.086,0 -0.1551,-0.034451 -0.052,-0.051676 -0.052,-0.1378039 0,-0.034451 0.017,-0.051677 -0.3618,0.017225 -0.5512,0.2411569 -0.1895,0.2239313 -0.4135,0.4650882 -0.155,0.1550294 -0.3272,0.2411568 -0.1723,0.068902 -0.3618,0.1205784 -0.1722,0.068902 -0.3789,0.1550294 -0.1895,0.086127 -0.379,0.2583824 -0.155,0.15502936 -0.5168,0.22393132 -0.3617,0.0861275 -0.7751,0.12057842 -0.3962,0.0516765 -0.7924,0.0516765 -0.3789,0.0172255 -0.6029,0.0172255 -0.5167,0 -0.844,-0.0861275 -0.3101,-0.0861274 -0.5685,-0.22393135 -0.2411,-0.1205784 -0.5167,-0.2756078 -0.2756,-0.1378039 -0.7063,-0.2756079 -0.4651,-0.1378039 -1.1196,-0.5167646 -0.6546,-0.3789608 -1.2575,-0.8785 -0.5857,-0.4995391 -0.9991,-1.0679803 -0.4134,-0.5856666 -0.4134,-1.1196568 0,-0.2411568 -0.1206,-0.4823137 -0.1033,-0.2583823 -0.2756,-0.4823137 -0.155,-0.2411568 -0.3272,-0.4650882 -0.1723,-0.2411568 -0.2757,-0.4478627 -0.3272,-0.6545686 -0.4306,-1.3780391 -0.086,-0.7234705 -0.086,-1.4469411 0,-0.6717945 0.1033,-1.2746865 0.1034,-0.620117 0.2584,-1.205784 0.155,-0.602892 0.3101,-1.188559 0.1722,-0.585666 0.31,-1.223009 0.086,-0.447863 0.2412,-0.671794 0.155,-0.241157 0.3445,-0.413412 0.2067,-0.172255 0.4306,-0.327284 0.2412,-0.15503 0.4823,-0.447863 0.1034,-0.120579 0.1206,-0.206706 0.034,-0.103353 0.052,-0.155029 0.034,-0.0689 0.1034,-0.08613 0.086,-0.03445 0.31,-0.03445 0.1378,0 0.2067,-0.08613 0.086,-0.08613 0.1551,-0.206706 0.069,-0.120579 0.1205,-0.241157 0.069,-0.137804 0.1723,-0.206706 0.1033,-0.0689 0.2584,-0.103353 0.155,-0.03445 0.3273,-0.05168 0.1722,-0.01723 0.3272,-0.03445 0.1723,-0.01723 0.3101,-0.0689 0.3617,-0.15503 0.5857,-0.275608 0.2411,-0.120578 0.4478,-0.206706 0.224,-0.103353 0.4996,-0.155029 0.2756,-0.05168 0.7234,-0.05168 0.5857,0 1.1541,0.15503 0.5857,0.137804 1.1541,0.310058 0.5685,0.172255 1.1369,0.327285 0.5685,0.137804 1.1714,0.137804 0.4823,0 0.7579,-0.206706 0.2928,-0.206706 0.4306,-0.53399 0.1551,-0.327285 0.1895,-0.723471 0.052,-0.396186 0.052,-0.775147 0,-0.671794 -0.086,-1.326363 -0.086,-0.671794 -0.1206,-1.326362 l -0.1551,0.0689 q -0.1722,0 -0.31,-0.08613 -0.1378,-0.103353 -0.2584,-0.206706 -0.1206,-0.120578 -0.2584,-0.206705 -0.1378,-0.103353 -0.31,-0.103353 -0.1895,0 -0.2412,0.103353 -0.052,0.08613 -0.1722,0.172254 -0.1895,0.01723 -0.3962,0.03445 -0.1895,0 -0.379,0 h -0.7579 q -0.2412,0 -0.5512,-0.137804 -0.2929,-0.155029 -0.5685,-0.37896 -0.2756,-0.241157 -0.4651,-0.499539 -0.1722,-0.275608 -0.1722,-0.533991 0,-0.223931 0.1378,-0.465088 0.155,-0.258382 0.3617,-0.465088 0.224,-0.206706 0.4823,-0.327284 0.2584,-0.137804 0.4996,-0.137804 0.2239,0 0.4134,0.120578 0.1895,0.103353 0.4134,0.103353 0.379,0 0.7235,-0.120578 0.3617,-0.120579 0.7579,-0.120579 0.3962,0 0.7407,0.137804 0.3617,0.120579 0.7579,0.120579 0.2928,0 0.5857,-0.01723 0.31,-0.01722 0.6029,-0.01722 0.31,0 0.6201,0.05168 0.3273,0.05168 0.6029,0.206706 v 0.103353 q 0,0.241157 0.052,0.482314 0.069,0.223931 0.1378,0.465088 0.086,0.223931 0.1378,0.447863 0.069,0.223931 0.069,0.465088 0,0.310059 -0.1551,0.602892 -0.1378,0.275608 -0.1378,0.602892 0,0.602892 0.1378,1.205784 0.1378,0.585667 0.1378,1.188559 0,1.515843 -0.017,3.031686 -0.017,1.498618 -0.017,3.031686 0,1.550294 -0.1034,3.083363 -0.1033,1.5158426 -0.1033,3.0661366 0,0.5684412 0.052,1.2919117 0.052,0.7062451 0.2756,1.3435882 0.2239,0.6201176 0.6545,1.0507548 0.4479,0.4306372 1.223,0.4306372 0.1551,0 0.2929,-0.017225 0.155,-0.034451 0.31,-0.034451 0.224,0 0.3962,0.1205785 0.1723,0.1205784 0.2929,0.3100588 0.1205,0.1894803 0.1722,0.4134117 0.069,0.2239314 0.069,0.4134117 z m -6.2528,-8.5438427 q 0,-0.637343 -0.1206,-1.360813 -0.1034,-0.723471 -0.3962,-1.343589 -0.2756,-0.637343 -0.7752,-1.06798 -0.4823,-0.430637 -1.223,-0.465088 -0.155,-0.01723 -0.3789,-0.137804 -0.2067,-0.120578 -0.4307,-0.258382 -0.2239,-0.137804 -0.4478,-0.241157 -0.2067,-0.120579 -0.379,-0.120579 -0.155,0 -0.2928,0.0689 -0.1378,0.05168 -0.2756,0.137804 -0.1378,0.0689 -0.2756,0.137804 -0.1378,0.05168 -0.3101,0.05168 -0.2928,0 -0.5684,-0.03445 -0.2584,-0.03445 -0.5512,-0.03445 -0.8613,0 -1.5676,0.516764 -0.689,0.516765 -1.1885,1.291912 -0.4996,0.757922 -0.7752,1.653647 -0.2756,0.8785 -0.2756,1.619196 0,0.310059 0.034,0.6201175 0.052,0.3100588 0.052,0.6201176 0,0.2067059 -0.1205,0.3445098 -0.1034,0.1205784 -0.2584,0.2583824 -0.1378,0.1205784 -0.2584,0.2756078 -0.1034,0.1378039 -0.1034,0.3445098 h 0.1379 q 0.4478,0 0.689,0.1722548 0.2584,0.1550294 0.3789,0.4306373 0.1378,0.2583823 0.2067,0.6028921 0.086,0.3445098 0.1895,0.706245 0.1034,0.3445098 0.2929,0.6717941 0.2067,0.3272843 0.5856,0.5856666 0.2756,0.1894804 0.6029,0.4134118 0.3445,0.2239313 0.7063,0.4134117 0.3789,0.1894804 0.7407,0.3272843 0.3789,0.1205784 0.7234,0.1205784 0.5512,0 1.0852,-0.1550294 0.534,-0.1722549 1.0852,-0.1722549 0.2067,0 0.4479,0.051677 0.3962,-0.6201176 0.9129,-1.1713333 0.534,-0.5684411 1.292,-0.7923725 l -0.017,-0.3789607 q 0,-0.5684411 0.1206,-1.1024313 0.1378,-0.5512157 0.2928,-1.1196568 0.1551,-0.5684411 0.2757,-1.1713332 0.1378,-0.6028924 0.1378,-1.3091374 z"
           style="font-size:35.2778px"
           id="path911" />
        <path
           d="m -1418.8618,-23.142245 q 0,0.499539 -0.1722,1.033529 -0.155,0.516765 -0.4651,0.964628 -0.3101,0.430637 -0.7579,0.72347 -0.4307,0.275608 -0.9646,0.275608 -0.3618,0 -0.8958,-0.103353 -0.534,-0.120578 -1.0335,-0.327284 -0.4823,-0.223931 -0.844,-0.568441 -0.3446,-0.34451 -0.3446,-0.809598 0,-0.413412 0.086,-0.844049 0.1033,-0.447863 0.1205,-0.895726 0.1723,-0.08613 0.3446,-0.310058 0.1722,-0.223932 0.3272,-0.447863 0.1723,-0.241157 0.3273,-0.430637 0.1723,-0.189481 0.3445,-0.206706 l -0.086,0.03445 q 0.2412,-0.103353 0.4995,-0.172255 0.2757,-0.0689 0.5513,-0.0689 0.3617,0 0.8612,0.18948 0.5168,0.172255 0.9819,0.465089 0.4651,0.292833 0.7924,0.689019 0.3272,0.396186 0.3272,0.809598 z m 8.3372,20.9634202 q 0,0.2928333 -0.1206,0.5512156 -0.1033,0.2583824 -0.3101,0.4478628 -0.1894,0.20670582 -0.4478,0.32728424 -0.2584,0.12057843 -0.5685,0.12057843 -0.1205,0 -0.155,-0.034451 -0.034,-0.034451 -0.1206,-0.12057843 -0.2411,-0.25838236 -0.5856,-0.31005876 -0.3445,-0.034451 -0.7235,-0.086127 -0.3617,-0.034451 -0.7062,-0.1894804 -0.3273,-0.1378039 -0.534,-0.5856666 -0.1378,-0.2928333 -0.2929,-0.3789607 -0.155,-0.086127 -0.4823,-0.086127 -0.7579,0 -1.4469,0.2411569 -0.689,0.2411568 -1.3608,0.5512156 -0.6718,0.2928333 -1.3781,0.5339902 -0.689,0.24115681 -1.4297,0.24115681 -0.4134,0 -0.8268,-0.0861274 -0.3962,-0.068902 -0.7752,-0.2411569 -0.086,0.086127 -0.2067,0.1205784 -0.1033,0.034451 -0.2411,0.034451 -0.1206,0 -0.2412,-0.017226 -0.1033,-0.017225 -0.1895,-0.017225 -0.017,0 -0.1894,0.051676 -0.1723,0.068902 -0.2068,0.086127 l 0.1034,0.17225484 q -0.1034,0.1550294 -0.4651,0.29283332 -0.3617,0.1550294 -0.7924,0.25838233 -0.4134,0.10335294 -0.8096,0.17225489 -0.3961,0.06890196 -0.6028,0.06890196 -0.5513,0 -0.913,-0.18948038 -0.3445,-0.17225489 -0.689,-0.62011761 -0.1206,-0.17225485 -0.3101,-0.34450975 -0.1722,-0.1722549 -0.3445,-0.3445098 -0.155,-0.1894804 -0.2756,-0.3961863 -0.1033,-0.2067058 -0.1033,-0.4306372 0,-0.2583823 0.2756,-0.4306372 0.2756,-0.1722549 0.6545,-0.2756078 0.379,-0.1205785 0.7579,-0.1550294 0.379,-0.051677 0.5857,-0.051677 0.4134,0 0.8268,0.1205784 0.4135,0.103353 0.8269,0.103353 0.3789,0 0.7234,-0.103353 0.3445,-0.1033529 0.7235,-0.1033529 0.3273,0 0.6373,0.051676 0.3273,0.034451 0.6546,0.034451 0.4134,0 0.7924,-0.1378039 0.3962,-0.1550294 0.7407,-0.3961862 0.1378,-0.844049 0.1895,-1.6880979 0.069,-0.844049 0.069,-1.7053235 0,-0.8440489 -0.1378,-1.6880979 -0.1378,-0.8440489 -0.1378,-1.6708729 0,-0.0689 0.034,-0.0689 0.035,-0.01723 0.069,-0.01723 0.052,-0.01722 0.086,-0.03445 0.034,-0.03445 0.034,-0.137804 0,-0.361735 -0.1034,-0.706245 -0.1033,-0.34451 -0.1033,-0.706245 0,-0.447863 0.1206,-0.8785 0.1205,-0.430637 0.1205,-0.8785 0,-0.310059 -0.1378,-0.620117 -0.1378,-0.310059 -0.3617,-0.551216 -0.2239,-0.241157 -0.5168,-0.378961 -0.2928,-0.155029 -0.6201,-0.155029 -0.3617,0 -0.7235,0.08613 -0.3445,0.08613 -0.7234,0.206706 -0.379,0.103353 -0.7752,0.18948 -0.3789,0.08613 -0.8096,0.08613 -0.4995,0 -0.9818,-0.0689 -0.4823,-0.0689 -0.9819,-0.155029 -0.2411,-0.03445 -0.5512,-0.0689 -0.2928,-0.03445 -0.5684,-0.120579 -0.2756,-0.08613 -0.4651,-0.258382 -0.1895,-0.172255 -0.1895,-0.499539 0,-0.602892 0.2067,-0.912951 0.2239,-0.327285 0.534,-0.482314 0.3273,-0.155029 0.7235,-0.18948 0.3962,-0.03445 0.7579,-0.0689 0.6546,-0.05168 1.2919,-0.08613 0.6546,-0.05168 1.3091,-0.05168 0.8096,0 1.5848,0.103353 0.7924,0.08613 1.602,0.08613 0.5684,0 1.0852,0.172255 0.5167,0.172255 0.8957,0.53399 0.3962,0.34451 0.6201,0.8785 0.2239,0.53399 0.2239,1.240235 0,0.465089 -0.2067,0.912951 -0.1895,0.430638 -0.4995,0.775147 0.1206,0.223932 0.2411,0.310059 0.1206,0.0689 0.224,0.137804 0.1033,0.05168 0.1722,0.155029 0.069,0.08613 0.069,0.34451 0,0.137804 0.034,0.327284 0.052,0.172255 0.2411,0.189481 0,0.930176 -0.017,1.8431272 -0.017,0.8957254 -0.017,1.8086763 0,0.775147 0,1.550294 0.017,0.775147 0.1378,1.550294 0.069,0.4823137 0.2756,0.7406961 0.2067,0.2583823 0.7407,0.2583823 0.7751,0 1.5331,-0.1550294 0.7579,-0.1722549 1.533,-0.1722549 0.4479,0 0.8441,0.2239314 0.4134,0.2239313 0.7751,0.4823137 0.379,0.2583823 0.7235,0.4823137 0.3445,0.2239313 0.6546,0.2239313 0.1378,0 0.2239,0.1033529 0.086,0.086127 0.1206,0.2239314 0.052,0.1205784 0.052,0.2583823 0.017,0.137804 0.017,0.2411569 z"
           style="font-size:35.2778px"
           id="path913" />
        <path
           d="m -1391.5249,-2.4199817 q 0,0.6028922 -0.4134,0.9474019 -0.3962,0.3617353 -0.9646,0.5339902 -0.5685,0.18948038 -1.1886,0.24115684 -0.6029,0.0516765 -1.0335,0.0516765 -0.5685,0 -0.9474,-0.10335293 -0.3618,-0.10335294 -0.6374,-0.22393136 -0.2756,-0.10335292 -0.4823,-0.20670582 -0.2067,-0.103353 -0.4306,-0.103353 -0.2929,0 -0.5857,0.103353 -0.2756,0.1033529 -0.5684,0.1033529 -0.2067,0 -0.3445,-0.068902 -0.1206,-0.068902 -0.2067,-0.1722549 -0.086,-0.086127 -0.1723,-0.1550294 -0.069,-0.068902 -0.1723,-0.068902 -0.1205,0 -0.1894,0.086127 -0.069,0.103353 -0.1551,0.2239314 -0.086,0.1205784 -0.2584,0.2067059 -0.155,0.10335289 -0.465,0.10335289 -0.3618,0 -0.7063,-0.0861275 -0.3445,-0.068902 -0.7062,-0.068902 -0.3618,0 -0.7235,0.12057841 -0.3445,0.13780391 -0.6546,0.13780391 -0.1378,0 -0.2067,-0.10335293 -0.069,-0.0861275 -0.155,-0.0861275 -0.2928,0 -0.6201,0.13780395 -0.3101,0.13780392 -0.6374,0.13780392 -0.1722,0 -0.3445,-0.0516765 -0.155,-0.034451 -0.3273,-0.034451 -0.2928,0 -0.5856,0.13780391 -0.2929,0.13780391 -0.7235,0.13780391 -0.155,0 -0.689,-0.0516765 -0.5168,-0.034451 -1.068,-0.12057843 -0.5512,-0.0861274 -0.9991,-0.22393135 -0.4306,-0.1205784 -0.4306,-0.2756078 0,-0.4478627 0.155,-0.8957255 0.1723,-0.4478627 0.1723,-0.8612744 v -0.034451 q -0.224,0 -0.2584,-0.2411568 0.034,-0.068902 0.1033,-0.103353 0.086,-0.051676 0.1723,-0.068902 0.086,-0.034451 0.155,-0.086127 0.069,-0.051676 0.069,-0.1550294 v -0.068902 q 0.689,0.068902 1.3436,0.086127 0.6718,0.017225 1.3953,0.017225 0.6718,0 1.4814,-0.034451 0.8268,-0.051676 1.5158,-0.2583823 0.7063,-0.2067059 1.1714,-0.6201176 0.4823,-0.4306372 0.4823,-1.1885588 V -5.847854 -6.1234618 q -0.086,-1.8948038 -0.1895,-3.7207056 -0.086,-1.8431276 -0.086,-3.7379316 0,-0.499539 -0.086,-0.964627 -0.069,-0.482314 -0.069,-0.964627 0,-0.602892 0.2067,-1.205785 0.224,-0.602892 0.6891,-1.016303 -0.017,-0.103353 -0.086,-0.137804 -0.069,-0.05168 -0.1722,-0.0689 -0.1034,-0.01723 -0.2067,-0.03445 -0.086,-0.01723 -0.1551,-0.05168 -0.1033,-0.05168 -0.1378,-0.241157 -0.034,-0.18948 -0.069,-0.413411 -0.017,-0.223932 -0.052,-0.430638 -0.017,-0.223931 -0.1034,-0.344509 0.052,-0.499539 0.1723,-0.981853 0.1205,-0.482314 0.1205,-0.981853 0,-0.361735 -0.1033,-0.568441 -0.086,-0.206706 -0.2067,-0.34451 -0.1206,-0.137804 -0.224,-0.241157 -0.086,-0.120578 -0.086,-0.292833 0,-0.137804 0.086,-0.258382 l -0.1378,-0.01723 q -0.1722,0 -0.2583,0.08613 -0.086,0.08613 -0.1723,0.189481 -0.069,0.103353 -0.155,0.18948 -0.086,0.08613 -0.2412,0.08613 -0.1206,0 -0.2756,-0.05168 -0.2928,0.08613 -0.5512,0.08613 -0.6029,0 -1.2058,-0.15503 -0.5857,-0.172255 -1.1886,-0.172255 -0.3272,0 -0.6373,0.03445 -0.3101,0.01723 -0.6201,0.01723 -0.4479,0 -0.8957,-0.103353 -0.4479,-0.103353 -0.7924,-0.447863 v -0.206706 q 0,-0.912951 0.6029,-1.378039 0.6201,-0.465088 1.4986,-0.465088 0.6029,0 1.1886,0.155029 0.5856,0.15503 1.1885,0.15503 0.3273,0 0.689,-0.0689 0.3618,-0.0689 0.7407,-0.15503 0.379,-0.08613 0.758,-0.155029 0.3961,-0.0689 0.7751,-0.0689 0.5857,0 1.1024,0.258382 0.5168,0.241157 1.0336,0.465089 l -0.017,0.137804 q 0,0.155029 0.069,0.292833 0.086,0.120578 0.1895,0.258382 0.1034,0.120579 0.1723,0.258383 0.086,0.120578 0.086,0.275607 0,0.15503 -0.052,0.310059 -0.034,0.137804 -0.034,0.292833 0,0.378961 0.1378,0.723471 0.155,0.34451 0.155,0.740696 0,0.413412 -0.1033,0.809598 -0.086,0.396186 -0.086,0.809598 0,0.499539 0.1206,0.999078 0.1206,0.49954 0.1206,0.999079 0,0.413411 -0.1378,0.809598 -0.1206,0.396186 -0.1206,0.792372 0,0.292834 0.069,0.585667 0.086,0.275608 0.1895,0.551215 0.1033,0.275608 0.1722,0.568442 0.086,0.275607 0.086,0.585666 v 0.34451 q 0,0.275608 -0.052,0.53399 -0.034,0.241157 -0.2239,0.465088 0.086,0.327285 0.1722,0.706245 0.1034,0.378961 0.1034,0.723471 0,0.172255 -0.035,0.378961 -0.017,0.18948 -0.086,0.396186 -0.052,0.18948 -0.155,0.361735 -0.1034,0.1550297 -0.2412,0.2583826 0.2239,0.6545686 0.2928,1.3263627 0.069,0.671794 0.1034,1.3435881 0.017,0.2067059 0.069,0.5339902 0.052,0.3272842 0.1033,0.6545685 0.052,0.3100588 0.086,0.5856667 0.052,0.2583823 0.052,0.3617352 0,0.2928333 -0.1033,0.5684412 -0.1034,0.2756078 -0.1034,0.5684411 0,0.2239314 0.1034,0.4823137 0.1033,0.2411568 0.379,0.2411568 0.2067,0 0.3445,-0.086127 0.155,-0.1033529 0.3272,-0.2067059 0.1723,-0.1205784 0.3962,-0.2067058 0.2412,-0.103353 0.6374,-0.103353 0.4478,0 0.844,0.1205785 0.3962,0.1205784 0.8441,0.1205784 0.3273,0 0.6545,-0.051677 0.3446,-0.068902 0.6546,-0.1378039 0.3273,-0.086127 0.6546,-0.1550294 0.3273,-0.068902 0.6718,-0.068902 0.689,0 1.1541,0.3961863 0.4823,0.3961862 0.4823,1.1713332 z m -9.8874,-21.4457333 q -0.069,-0.0689 -0.1723,-0.137804 -0.086,-0.0689 -0.2067,-0.0689 -0.086,0 -0.155,0.08613 -0.052,0.0689 -0.052,0.155029 l 0.086,0.206706 q 0.069,0.03445 0.1034,0.03445 0.1378,0 0.2239,-0.08613 0.1034,-0.103353 0.1723,-0.18948 z m 1.0335,4.788685 q 0,-0.137803 -0.086,-0.275607 -0.069,-0.15503 -0.2412,-0.15503 -0.052,0 -0.1206,0.01723 -0.052,0.01722 -0.086,0.03445 v 0.740696 q 0.1378,0.0689 0.2067,0.0689 0.1723,0 0.2412,-0.137804 0.086,-0.15503 0.086,-0.292834 z"
           style="font-size:35.2778px"
           id="path915" />
        <path
           d="m -1379.7254,-23.142245 q 0,0.499539 -0.1723,1.033529 -0.155,0.516765 -0.4651,0.964628 -0.31,0.430637 -0.7579,0.72347 -0.4306,0.275608 -0.9646,0.275608 -0.3618,0 -0.8958,-0.103353 -0.5339,-0.120578 -1.0335,-0.327284 -0.4823,-0.223931 -0.844,-0.568441 -0.3445,-0.34451 -0.3445,-0.809598 0,-0.413412 0.086,-0.844049 0.1033,-0.447863 0.1206,-0.895726 0.1722,-0.08613 0.3445,-0.310058 0.1722,-0.223932 0.3273,-0.447863 0.1722,-0.241157 0.3272,-0.430637 0.1723,-0.189481 0.3446,-0.206706 l -0.086,0.03445 q 0.2412,-0.103353 0.4996,-0.172255 0.2756,-0.0689 0.5512,-0.0689 0.3617,0 0.8613,0.18948 0.5167,0.172255 0.9818,0.465089 0.4651,0.292833 0.7924,0.689019 0.3273,0.396186 0.3273,0.809598 z m 8.3371,20.9634202 q 0,0.2928333 -0.1206,0.5512156 -0.1033,0.2583824 -0.31,0.4478628 -0.1895,0.20670582 -0.4479,0.32728424 -0.2584,0.12057843 -0.5684,0.12057843 -0.1206,0 -0.1551,-0.034451 -0.034,-0.034451 -0.1206,-0.12057843 -0.2411,-0.25838236 -0.5856,-0.31005876 -0.3445,-0.034451 -0.7235,-0.086127 -0.3617,-0.034451 -0.7062,-0.1894804 -0.3273,-0.1378039 -0.534,-0.5856666 -0.1378,-0.2928333 -0.2929,-0.3789607 -0.155,-0.086127 -0.4823,-0.086127 -0.7579,0 -1.4469,0.2411569 -0.689,0.2411568 -1.3608,0.5512156 -0.6718,0.2928333 -1.3781,0.5339902 -0.689,0.24115681 -1.4297,0.24115681 -0.4134,0 -0.8268,-0.0861274 -0.3962,-0.068902 -0.7751,-0.2411569 -0.086,0.086127 -0.2068,0.1205784 -0.1033,0.034451 -0.2411,0.034451 -0.1206,0 -0.2412,-0.017226 -0.1033,-0.017225 -0.1894,-0.017225 -0.017,0 -0.1895,0.051676 -0.1723,0.068902 -0.2067,0.086127 l 0.1033,0.17225484 q -0.1033,0.1550294 -0.4651,0.29283332 -0.3617,0.1550294 -0.7923,0.25838233 -0.4135,0.10335294 -0.8096,0.17225489 -0.3962,0.06890196 -0.6029,0.06890196 -0.5512,0 -0.913,-0.18948038 -0.3445,-0.17225489 -0.689,-0.62011761 -0.1206,-0.17225485 -0.3101,-0.34450975 -0.1722,-0.1722549 -0.3445,-0.3445098 -0.155,-0.1894804 -0.2756,-0.3961863 -0.1033,-0.2067058 -0.1033,-0.4306372 0,-0.2583823 0.2756,-0.4306372 0.2756,-0.1722549 0.6545,-0.2756078 0.379,-0.1205785 0.758,-0.1550294 0.3789,-0.051677 0.5856,-0.051677 0.4134,0 0.8269,0.1205784 0.4134,0.103353 0.8268,0.103353 0.3789,0 0.7234,-0.103353 0.3446,-0.1033529 0.7235,-0.1033529 0.3273,0 0.6374,0.051676 0.3272,0.034451 0.6545,0.034451 0.4134,0 0.7924,-0.1378039 0.3962,-0.1550294 0.7407,-0.3961862 0.1378,-0.844049 0.1895,-1.6880979 0.069,-0.844049 0.069,-1.7053235 0,-0.8440489 -0.1378,-1.6880979 -0.1378,-0.8440489 -0.1378,-1.6708729 0,-0.0689 0.034,-0.0689 0.034,-0.01723 0.069,-0.01723 0.052,-0.01722 0.086,-0.03445 0.034,-0.03445 0.034,-0.137804 0,-0.361735 -0.1033,-0.706245 -0.1034,-0.34451 -0.1034,-0.706245 0,-0.447863 0.1206,-0.8785 0.1206,-0.430637 0.1206,-0.8785 0,-0.310059 -0.1378,-0.620117 -0.1379,-0.310059 -0.3618,-0.551216 -0.2239,-0.241157 -0.5167,-0.378961 -0.2929,-0.155029 -0.6202,-0.155029 -0.3617,0 -0.7234,0.08613 -0.3445,0.08613 -0.7235,0.206706 -0.379,0.103353 -0.7752,0.18948 -0.3789,0.08613 -0.8096,0.08613 -0.4995,0 -0.9818,-0.0689 -0.4823,-0.0689 -0.9819,-0.155029 -0.2411,-0.03445 -0.5512,-0.0689 -0.2928,-0.03445 -0.5684,-0.120579 -0.2756,-0.08613 -0.4651,-0.258382 -0.1895,-0.172255 -0.1895,-0.499539 0,-0.602892 0.2067,-0.912951 0.224,-0.327285 0.534,-0.482314 0.3273,-0.155029 0.7235,-0.18948 0.3962,-0.03445 0.7579,-0.0689 0.6546,-0.05168 1.2919,-0.08613 0.6546,-0.05168 1.3092,-0.05168 0.8096,0 1.5847,0.103353 0.7924,0.08613 1.602,0.08613 0.5684,0 1.0852,0.172255 0.5167,0.172255 0.8957,0.53399 0.3962,0.34451 0.6201,0.8785 0.2239,0.53399 0.2239,1.240235 0,0.465089 -0.2067,0.912951 -0.1894,0.430638 -0.4995,0.775147 0.1206,0.223932 0.2412,0.310059 0.1205,0.0689 0.2239,0.137804 0.1033,0.05168 0.1722,0.155029 0.069,0.08613 0.069,0.34451 0,0.137804 0.034,0.327284 0.052,0.172255 0.2412,0.189481 0,0.930176 -0.017,1.8431272 -0.017,0.8957254 -0.017,1.8086763 0,0.775147 0,1.550294 0.017,0.775147 0.1378,1.550294 0.069,0.4823137 0.2756,0.7406961 0.2067,0.2583823 0.7407,0.2583823 0.7752,0 1.5331,-0.1550294 0.7579,-0.1722549 1.5331,-0.1722549 0.4478,0 0.844,0.2239314 0.4134,0.2239313 0.7751,0.4823137 0.379,0.2583823 0.7235,0.4823137 0.3445,0.2239313 0.6546,0.2239313 0.1378,0 0.2239,0.1033529 0.086,0.086127 0.1206,0.2239314 0.052,0.1205784 0.052,0.2583823 0.017,0.137804 0.017,0.2411569 z"
           style="font-size:35.2778px"
           id="path917" />
      </g>
    </g>
  </g>
  <g
     style="display:inline"
     id="layer2"
     transform="translate(1291.2304,148.15736)" />
  <g
     style="display:inline"
     id="layer3"
     transform="translate(1291.2304,148.15736)" />
</svg>
