<?xml version="1.0" encoding="UTF-8" standalone="no"?>
<svg
   xmlns:osb="http://www.openswatchbook.org/uri/2009/osb"
   xmlns:dc="http://purl.org/dc/elements/1.1/"
   xmlns:cc="http://creativecommons.org/ns#"
   xmlns:rdf="http://www.w3.org/1999/02/22-rdf-syntax-ns#"
   xmlns:svg="http://www.w3.org/2000/svg"
   xmlns="http://www.w3.org/2000/svg"
   width="489.47913mm"
   height="185.20833mm"
   viewBox="0 0 489.47913 185.20833"
   version="1.1"
   id="svg8">
  <defs
     id="defs2">
    <rect
       id="rect936"
       height="83.81572"
       width="145.1808"
       y="-74.835464"
       x="-1514.6698" />
    <rect
       id="rect930"
       height="157.15448"
       width="248.45375"
       y="151.16763"
       x="-1275.1963" />
    <rect
       id="rect924"
       height="215.52614"
       width="453.50293"
       y="154.16106"
       x="-1278.1898" />
    <rect
       x="-1179.407"
       y="172.12158"
       width="381.66089"
       height="193.07552"
       id="rect3513" />
    <linearGradient
       id="linearGradient3353"
       osb:paint="solid">
      <stop
         style="stop-color:#000000;stop-opacity:1;"
         offset="0"
         id="stop3351" />
    </linearGradient>
    <linearGradient
       id="linearGradient2947"
       osb:paint="solid">
      <stop
         style="stop-color:#000000;stop-opacity:1;"
         offset="0"
         id="stop2945" />
    </linearGradient>
    <linearGradient
       id="linearGradient2933"
       osb:paint="solid">
      <stop
         style="stop-color:#ff6600;stop-opacity:1;"
         offset="0"
         id="stop2931" />
    </linearGradient>
    <linearGradient
       id="linearGradient4984"
       osb:paint="solid">
      <stop
         style="stop-color:#000000;stop-opacity:1;"
         offset="0"
         id="stop4982" />
    </linearGradient>
    <rect
       x="-1514.6698"
       y="-74.835464"
       width="145.1808"
       height="83.81572"
       id="rect1101" />
    <rect
       x="-1514.6698"
       y="-74.835464"
       width="145.1808"
       height="83.81572"
       id="rect1140" />
    <rect
       x="-1514.6698"
       y="-74.835464"
       width="145.1808"
       height="83.81572"
       id="rect1214" />
  </defs>
  <metadata
     id="metadata5">
    <rdf:RDF>
      <cc:Work
         rdf:about="">
        <dc:format>image/svg+xml</dc:format>
        <dc:type
           rdf:resource="http://purl.org/dc/dcmitype/StillImage" />
        <dc:title></dc:title>
      </cc:Work>
    </rdf:RDF>
  </metadata>
  <g
     style="display:inline"
     id="layer6"
     transform="translate(1291.2304,148.15736)">
    <g
       transform="translate(-206.30797,-523.82048)"
       id="g1256">
      <g
         id="g1243">
        <rect
           y="375.66312"
           x="-992.3183"
           height="185.20833"
           width="396.875"
           id="rect1190"
           style="fill:#ffb280;fill-opacity:1;stroke:none;stroke-width:5.06425;stroke-miterlimit:4;stroke-dasharray:none;stroke-dashoffset:0;stroke-opacity:1" />
        <g
           id="g1204"
           transform="translate(-843.89906,395.50683)">
          <circle
             r="85.480804"
             cy="72.760452"
             cx="-148.41922"
             id="circle1192"
             style="opacity:1;fill:#000000;fill-rule:evenodd;stroke:#ff6600;stroke-width:14.2467;stroke-miterlimit:4;stroke-dasharray:none;stroke-opacity:1" />
          <g
             id="g1202">
            <g
               id="g1196"
               transform="matrix(0.27634382,0,0,0.2973702,-195.14895,48.43422)"
               style="fill:#ff6600;fill-opacity:1;stroke-width:3.4884">
              <path
                 style="fill:#ff6600;fill-opacity:1;stroke:none;stroke-width:0.937138px;stroke-linecap:butt;stroke-linejoin:miter;stroke-opacity:1"
                 d="m 179.63687,87.916304 c 0,0 -4.18623,4.684546 -8.08965,13.483436 -2.8275,6.37362 -5.25904,14.8558 -5.06771,24.31504 -0.77409,-1.41342 -1.58127,-2.74477 -2.39735,-3.96909 -4.75069,-7.12725 -9.26961,-10.80205 -9.26961,-10.80205 0,0 3.02212,4.31922 5.33326,11.39637 2.34878,7.19246 3.5051,16.66324 -0.0486,26.21269 -2.28803,6.18211 -6.33574,11.98655 -11.93624,16.93641 -2.20486,1.97725 -4.75126,3.86426 -7.39213,5.80072 -2.64941,1.9427 -5.47911,3.99454 -8.19623,6.23689 -5.66339,4.51491 -10.49169,10.01387 -12.42619,16.65142 -1.79183,6.81281 0.0628,13.63539 3.42586,19.29285 4.93626,8.34468 12.77219,13.98627 18.47378,17.17102 5.80432,3.24213 9.66979,4.34271 9.66979,4.34271 0,0 -3.4367,-1.83562 -7.91012,-5.67907 -4.46007,-3.832 -9.74538,-9.73 -12.01292,-16.92077 -1.51383,-4.84612 -1.66377,-10.17081 0.62646,-14.65993 2.08817,-4.49714 6.70957,-8.23987 11.95307,-12.17837 2.638,-1.90787 5.47782,-3.824 8.26542,-5.88413 2.76875,-2.04617 5.54856,-4.27759 8.08217,-6.79993 5.31241,-5.35263 8.69158,-11.47536 10.29251,-17.79835 1.62279,3.12439 3.87266,6.05212 6.78624,8.58811 1.75703,1.51209 3.62686,2.81838 5.46977,4.00211 1.85546,1.19179 3.7259,2.28662 5.47724,3.38694 3.49705,2.28359 6.60879,4.47397 8.31965,7.31605 1.82829,2.82465 2.31926,6.34692 1.95977,9.636 -0.54587,4.88167 -2.99886,9.0928 -5.19301,11.88989 -2.20071,2.80546 -4.01303,4.22455 -4.01303,4.22455 0,0 2.14236,-0.95906 5.18739,-3.44776 2.99115,-2.44467 6.96547,-6.64055 8.94798,-12.44425 1.11521,-3.2425 1.52304,-6.94303 0.63954,-10.60046 5.03057,3.66162 9.37039,7.31653 11.83714,11.7613 3.09267,5.16838 3.74892,11.50257 2.8985,17.36391 -1.28421,8.6987 -5.93668,16.0747 -10.03819,20.94026 -4.11379,4.88013 -7.44636,7.3039 -7.44636,7.3039 0,0 3.89348,-1.58045 9.49776,-5.84069 5.50509,-4.18485 12.87837,-11.43859 16.79077,-21.69619 2.66968,-6.95552 3.57661,-15.1862 0.65263,-23.14898 -3.0471,-7.74459 -8.96192,-13.93274 -15.60331,-18.89316 -3.19799,-2.47038 -6.48589,-4.70837 -9.56695,-6.82774 -3.07113,-2.11256 -6.03522,-4.17195 -8.65438,-6.36376 -6.64178,-5.48133 -11.78118,-12.088 -15.13022,-19.26678 -5.19366,-11.08763 -5.42537,-22.41546 -4.05604,-31.12192 1.34738,-8.566862 3.86157,-13.909196 3.86157,-13.909196 z"
                 id="path1194" />
            </g>
            <path
               style="fill:none;stroke:#bbbbbb;stroke-width:5.0001;stroke-miterlimit:4;stroke-dasharray:none;stroke-opacity:1"
               d="M -166.07204,8.878069 V 54.91557 c -2.1957,25.56487 -19.4539,34.815668 -20.57135,51.95032 -1.16857,17.91845 20.04025,29.62517 37.99613,29.77544 17.95588,0.15027 38.97577,-11.18576 38.48964,-29.13569 -0.56229,-20.762092 -19.73584,-31.1596 -19.93109,-52.59007 V 8.878069 Z"
               id="path1198" />
            <path
               style="color:#000000;font-style:normal;font-variant:normal;font-weight:normal;font-stretch:normal;font-size:medium;line-height:normal;font-family:sans-serif;font-variant-ligatures:normal;font-variant-position:normal;font-variant-caps:normal;font-variant-numeric:normal;font-variant-alternates:normal;font-feature-settings:normal;text-indent:0;text-align:start;text-decoration:none;text-decoration-line:none;text-decoration-style:solid;text-decoration-color:#000000;letter-spacing:normal;word-spacing:normal;text-transform:none;writing-mode:lr-tb;direction:ltr;text-orientation:mixed;dominant-baseline:auto;baseline-shift:baseline;text-anchor:start;white-space:normal;shape-padding:0;clip-rule:nonzero;display:inline;overflow:visible;visibility:visible;opacity:0.5;isolation:auto;mix-blend-mode:normal;color-interpolation:sRGB;color-interpolation-filters:linearRGB;solid-color:#000000;solid-opacity:1;vector-effect:none;fill:#ffffff;fill-opacity:1;fill-rule:nonzero;stroke:none;stroke-width:0.264583px;stroke-linecap:butt;stroke-linejoin:miter;stroke-miterlimit:4;stroke-dasharray:none;stroke-dashoffset:0;stroke-opacity:1;color-rendering:auto;image-rendering:auto;shape-rendering:auto;text-rendering:auto;enable-background:accumulate"
               d="m -150.46627,109.0487 c -0.22682,0.41404 -0.42797,0.83662 -0.59686,1.26969 -0.034,0.0871 -0.0668,0.17506 -0.0982,0.26303 -0.58174,1.62682 -0.72338,3.3971 -0.20154,5.37331 0.64798,-0.6421 1.32746,-1.26803 2.01797,-1.88257 1.9262,-1.7144 3.92488,-3.34703 5.47873,-5.02346 z m 7.77265,0.0811 c -1.02397,0.92069 -2.10665,1.84263 -3.16932,2.78846 -0.31444,0.27987 -0.62696,0.56241 -0.93482,0.84698 -2.15501,1.99206 -4.09334,4.11276 -5.04465,6.55205 -0.034,0.0871 -0.0673,0.17506 -0.0987,0.26303 -0.58174,1.62682 -0.72338,3.3971 -0.20154,5.37332 0.64798,-0.6421 1.32797,-1.26801 2.01848,-1.88257 2.51998,-2.24286 5.16638,-4.34521 6.77478,-6.58978 1.58903,-2.21759 2.17347,-4.55668 0.65577,-7.35149 z m -0.33796,8.99945 c -1.02381,0.92053 -2.10683,1.84228 -3.16932,2.78794 -0.31445,0.27987 -0.62645,0.5624 -0.93431,0.84698 -2.15501,1.99205 -4.09386,4.11276 -5.04517,6.55205 -0.034,0.0871 -0.0668,0.17507 -0.0982,0.26304 -0.55355,1.548 -0.70716,3.22595 -0.2713,5.08754 h 0.36328 c 0.55897,-0.54224 1.13698,-1.07395 1.72445,-1.5968 2.51998,-2.24287 5.16638,-4.3452 6.77478,-6.58978 1.58896,-2.21748 2.17319,-4.55636 0.65577,-7.35097 z m -0.30489,8.71264 c -1.02396,0.9207 -2.10664,1.84263 -3.16932,2.78846 -0.31444,0.27988 -0.62698,0.56189 -0.93483,0.84646 -1.01194,0.93543 -1.9745,1.90017 -2.81119,2.91197 h 6.78511 c 1.17216,-1.98124 1.46574,-4.08759 0.13023,-6.54689 z"
               id="path1200" />
          </g>
        </g>
      </g>
      <text
         transform="matrix(1.8003912,0,0,1.8003912,1848.621,532.21493)"
         style="font-size:35.2778px;line-height:1.25;font-family:'Special Elite';-inkscape-font-specification:'Special Elite';white-space:pre;shape-inside:url(#rect1214);"
         id="text1210"
         xml:space="preserve"><tspan
           x="-1514.6699"
           y="-45.621508"><tspan
             style="font-size:35.2778px">Yağ
</tspan></tspan><tspan
           x="-1514.6699"
           y="-1.5242562"><tspan
             style="font-size:35.2778px">Kandili</tspan></tspan></text>
    </g>
  </g>
  <g
     style="display:inline"
     id="layer2"
     transform="translate(1291.2304,148.15736)" />
  <g
     style="display:inline"
     id="layer3"
     transform="translate(1291.2304,148.15736)" />
</svg>
